<?xml version="1.0" encoding="UTF-8" standalone="no"?>
<svg
   width="189.50806"
   zoomAndPan="magnify"
   viewBox="0 0 142.13105 87.160741"
   height="116.21432"
   preserveAspectRatio="xMidYMid"
   version="1.0"
   id="svg163"
   sodipodi:docname="logo-small.svg"
   inkscape:version="1.3 (0e150ed6c4, 2023-07-21)"
   xmlns:inkscape="http://www.inkscape.org/namespaces/inkscape"
   xmlns:sodipodi="http://sodipodi.sourceforge.net/DTD/sodipodi-0.dtd"
   xmlns="http://www.w3.org/2000/svg"
   xmlns:svg="http://www.w3.org/2000/svg">
  <sodipodi:namedview
     id="namedview163"
     pagecolor="#ffffff"
     bordercolor="#000000"
     borderopacity="0.25"
     inkscape:showpageshadow="2"
     inkscape:pageopacity="0.0"
     inkscape:pagecheckerboard="0"
     inkscape:deskcolor="#d1d1d1"
     inkscape:zoom="4.724"
     inkscape:cx="106.5834"
     inkscape:cy="87.320068"
     inkscape:window-width="2560"
     inkscape:window-height="1377"
     inkscape:window-x="-8"
     inkscape:window-y="-8"
     inkscape:window-maximized="1"
     inkscape:current-layer="svg163" />
  <defs
     id="defs8">
    <g
       id="g1" />
    <clipPath
       id="23721d0698">
      <path
         d="m 143,120 h 56 v 73.32422 h -56 z m 0,0"
         clip-rule="nonzero"
         id="path1" />
    </clipPath>
    <clipPath
       id="ed28748112">
      <path
         d="m 176,120 h 56 v 73.32422 h -56 z m 0,0"
         clip-rule="nonzero"
         id="path2" />
    </clipPath>
    <clipPath
       id="bf7062d051">
      <path
         d="m 198,120 h 55.12891 v 73.32422 H 198 Z m 0,0"
         clip-rule="nonzero"
         id="path3" />
    </clipPath>
    <clipPath
       id="ca87896874">
      <path
         d="M 121.87891,120 H 177 v 73.32422 h -55.12109 z m 0,0"
         clip-rule="nonzero"
         id="path4" />
    </clipPath>
    <clipPath
       id="55ec11f01d">
      <path
         d="m 176,192 h 1 v 1.32422 h -1 z m 0,0"
         clip-rule="nonzero"
         id="path5" />
    </clipPath>
    <clipPath
       id="36176333dc">
      <path
         d="m 159,122 h 18 v 71.32422 h -18 z m 0,0"
         clip-rule="nonzero"
         id="path6" />
    </clipPath>
    <clipPath
       id="7bb213b8e0">
      <path
         d="m 198,122 h 18 v 71.32422 h -18 z m 0,0"
         clip-rule="nonzero"
         id="path7" />
    </clipPath>
    <clipPath
       id="2377dcd7e6">
      <path
         d="m 176,123 h 23 v 70.32422 h -23 z m 0,0"
         clip-rule="nonzero"
         id="path8" />
    </clipPath>
  </defs>
  <rect
     x="0"
     width="142.13104"
     fill="#00457d"
     y="-1.7763568e-15"
     height="87.160744"
     fill-opacity="1"
     id="rect9"
     style="stroke-width:1" />
  <path
     fill="#00457d"
     d="m 43.303808,80.859431 h 37.82422 c 0,0 -2.80469,-5.36328 -6.50391,-12.89843 -3.60547,-7.33985 -3.30859,-11.04688 -3.30859,-11.04688 0.0977,-2.64062 0.92187,-5.33984 2.86719,-8.99609 4.08203,-7.66406 8.64843,-12.75 5.1875,-24.85547 -3.28516,-11.46484 -14.09375,-15.8203097 -29.2461,-13.1601597 -14.48828,2.5429697 -16.39062,14.7460997 -16.66797,15.7695297 -0.1289,0.48438 -0.91406,4.01563 -0.94531,5.10938 -0.0312,1.08984 0.53516,2.24219 0.47266,3.48828 -0.0625,1.24609 -3.55469,6.9375 -4.58594,8.5 -1.03125,1.5625 -0.87891,3.14844 1.12109,3.70313 1.19532,0.33203 1.85547,0.14453 2.26172,0.55078 0.40625,0.40625 0.0195,2.08593 -0.66797,2.89843 -0.68359,0.8086 -0.0312,1.5586 0.90625,2.02735 0.92969,0.46875 -0.20312,0.30469 -0.26562,1.42969 -0.0625,1.125 1.04687,1.50781 1.42187,2.00781 0.375,0.5 -0.39843,1.91015 -0.10156,5.65234 0.25781,3.23828 5.91016,3.83594 9.03516,3.6875 4.28125,-0.20312 4.6875,2.5625 4.6875,2.5625 0.6914,9.08594 -3.49219,13.57031 -3.49219,13.57031"
     fill-opacity="1"
     fill-rule="nonzero"
     id="path9"
     style="stroke-width:1.59975;stroke-dasharray:none" />
  <g
     clip-path="url(#23721d0698)"
     id="g10"
     style="stroke-width:1.59975;stroke-dasharray:none"
     transform="translate(-116.43447,-111.81244)">
    <path
       fill="#ededed"
       d="m 159.73828,192.67187 v 0.51563 h 37.82422 c 0.17969,0 0.34375,-0.0937 0.4375,-0.25 0.0937,-0.15625 0.10156,-0.34375 0.0156,-0.50391 0,-0.004 -0.043,-0.0859 -0.125,-0.24609 -0.58593,-1.125 -3.13281,-6.05078 -6.37109,-12.64063 -3.0625,-6.23828 -3.26172,-9.78515 -3.26172,-10.59765 0,-0.0664 0,-0.11328 0.004,-0.14453 v -0.0352 l -0.17969,-0.0156 0.17969,0.0156 -0.17969,-0.0156 0.17969,0.0156 0.004,-0.0234 c 0.0977,-2.54687 0.87891,-5.15234 2.8086,-8.77343 1.51953,-2.85938 3.125,-5.37891 4.36719,-8.08594 1.23828,-2.70313 2.10156,-5.59766 2.10156,-9.14453 0,-2.34375 -0.375,-4.96485 -1.2461,-8.00782 -1.35546,-4.7539 -4.00781,-8.35546 -7.70312,-10.73828 -3.69922,-2.38281 -8.41797,-3.55078 -13.91797,-3.55078 -2.57031,0 -5.3125,0.25391 -8.20703,0.76172 -3.6875,0.64453 -6.59766,1.91406 -8.87891,3.47266 -3.42187,2.34375 -5.42578,5.32812 -6.58984,7.8164 -0.58594,1.2461 -0.96094,2.36719 -1.20703,3.23047 -0.1211,0.42969 -0.21094,0.79297 -0.27344,1.07422 -0.0625,0.27734 -0.10937,0.48438 -0.125,0.55078 -0.0391,0.14063 -0.10937,0.44922 -0.20312,0.8711 -0.14063,0.6289 -0.32422,1.49218 -0.47266,2.30859 -0.0781,0.40625 -0.14453,0.80078 -0.19531,1.14844 -0.0508,0.35547 -0.0859,0.65625 -0.0937,0.89843 0,0.0312 -0.004,0.0625 -0.004,0.10157 0.004,0.58593 0.13672,1.13672 0.25391,1.66797 0.12109,0.53515 0.22656,1.04296 0.22656,1.53906 0,0.0586 0,0.11719 -0.004,0.17187 v -0.004 c 0,0.0234 -0.008,0.0898 -0.0312,0.17968 -0.0898,0.33594 -0.35937,0.96094 -0.72265,1.67579 -1.08985,2.16406 -3.03516,5.30859 -3.7461,6.38671 -0.4414,0.67188 -0.71093,1.375 -0.71484,2.07032 0,0.53515 0.17578,1.07031 0.54687,1.49609 0.36719,0.42188 0.90235,0.73047 1.58204,0.91797 0.64453,0.17969 1.15234,0.21875 1.5,0.26172 0.17187,0.0195 0.30078,0.043 0.38281,0.0703 0.082,0.0273 0.11328,0.0508 0.14844,0.0859 l 0.0703,-0.0703 -0.0898,0.0469 0.0195,0.0234 0.0703,-0.0703 -0.0898,0.0469 c 0.004,0 0.0391,0.10156 0.0352,0.25391 0,0.26172 -0.0703,0.64843 -0.20312,1.01953 -0.12891,0.37109 -0.31641,0.73047 -0.50391,0.94922 -0.25781,0.30078 -0.41016,0.66015 -0.41016,1.01562 0,0.21875 0.0547,0.42969 0.14063,0.61328 0.13672,0.27735 0.33203,0.50391 0.5625,0.69922 0.23047,0.19141 0.49219,0.35547 0.76953,0.4961 0.12109,0.0586 0.1875,0.10546 0.19141,0.10937 l 0.0781,-0.0937 -0.0898,0.0859 0.0117,0.008 0.0781,-0.0937 -0.0898,0.0859 0.23828,-0.23047 -0.29297,0.14453 c 0.0234,0.0469 0.043,0.0703 0.0547,0.0859 l 0.23828,-0.23047 -0.29297,0.14453 0.375,-0.17969 h -0.41797 c 0,0.0664 0.0195,0.13672 0.043,0.17969 l 0.375,-0.17969 h -0.41797 0.39063 l -0.32422,-0.22265 c -0.0195,0.0273 -0.0664,0.10547 -0.0664,0.22265 h 0.39063 l -0.32422,-0.22265 0.16797,0.11328 -0.15235,-0.13281 -0.0156,0.0195 0.16797,0.11328 -0.15235,-0.13281 c -0.008,0.008 -0.0586,0.0508 -0.1289,0.11718 -0.10157,0.0937 -0.24219,0.23828 -0.35938,0.44532 -0.11719,0.20703 -0.20312,0.47265 -0.21875,0.78515 v -0.004 c -0.004,0.0391 -0.004,0.0781 -0.004,0.12109 -0.004,0.35156 0.0898,0.66797 0.23438,0.92578 0.21484,0.38672 0.51562,0.64844 0.76953,0.85156 0.125,0.10157 0.24219,0.19141 0.33594,0.26953 0.0898,0.0742 0.15625,0.14063 0.18359,0.17969 l 0.0742,-0.0547 -0.082,0.0391 0.008,0.0156 0.0742,-0.0547 -0.082,0.0391 0.0156,-0.008 -0.0156,0.004 v 0.004 l 0.0156,-0.008 -0.0156,0.004 c 0,0.004 0.0117,0.0469 0.0117,0.14063 0,0.21484 -0.0625,0.6289 -0.13672,1.21093 -0.0703,0.58594 -0.14063,1.34375 -0.14063,2.3125 0,0.51953 0.0195,1.09766 0.0703,1.74219 0.0352,0.43359 0.15625,0.83984 0.34375,1.20313 0.33203,0.63281 0.85937,1.1289 1.48437,1.51562 0.9375,0.58203 2.10547,0.93359 3.3086,1.15625 1.19921,0.22266 2.4375,0.30469 3.51562,0.30469 0.32422,0 0.63281,-0.008 0.92188,-0.0195 0.14843,-0.008 0.28906,-0.0117 0.42187,-0.0117 0.91016,0 1.58594,0.15234 2.09375,0.36328 0.76172,0.31641 1.15625,0.76953 1.38281,1.14453 0.10938,0.1875 0.17578,0.35547 0.21485,0.46875 0.0156,0.0586 0.0273,0.10156 0.0312,0.12891 l 0.008,0.0273 v 0.004 l 0.27734,-0.0469 -0.27734,0.043 v 0.004 l 0.27734,-0.0469 -0.27734,0.043 0.51172,-0.0742 -0.51563,0.0391 c 0.0508,0.6836 0.0742,1.33594 0.0742,1.96875 0,3.78907 -0.87109,6.60157 -1.73437,8.46485 -0.4336,0.93359 -0.86328,1.625 -1.1836,2.08203 -0.15625,0.23047 -0.28906,0.39844 -0.3789,0.50781 -0.0469,0.0547 -0.082,0.0977 -0.10157,0.1211 l -0.0234,0.0312 -0.008,0.004 0.0234,0.0195 -0.0234,-0.0195 0.0234,0.0195 -0.0234,-0.0195 c -0.14062,0.14844 -0.17578,0.36719 -0.0937,0.5586 0.082,0.1875 0.26563,0.30859 0.47266,0.30859 v -0.51563 l 0.375,0.35157 c 0.0312,-0.0312 0.95703,-1.03125 1.875,-3.01563 0.92188,-1.98047 1.83594,-4.94922 1.83203,-8.89844 0,-0.65625 -0.0234,-1.33984 -0.0781,-2.05078 l -0.004,-0.0312 c -0.008,-0.0625 -0.125,-0.80468 -0.79687,-1.55859 -0.33594,-0.375 -0.8125,-0.74609 -1.46094,-1.01563 -0.64844,-0.26953 -1.46875,-0.4414 -2.49219,-0.4414 -0.15234,0 -0.30859,0.004 -0.46875,0.0117 -0.27344,0.0117 -0.56641,0.0195 -0.875,0.0195 -1.55859,0.004 -3.49609,-0.1875 -5.01172,-0.71875 -0.75781,-0.26172 -1.40625,-0.60938 -1.85156,-1.02735 -0.22656,-0.20703 -0.40234,-0.43359 -0.52734,-0.67578 -0.12891,-0.24609 -0.20704,-0.50781 -0.23047,-0.80859 -0.0508,-0.61719 -0.0703,-1.16797 -0.0703,-1.66016 0,-0.91797 0.0664,-1.6289 0.13282,-2.1875 0.0664,-0.5625 0.14062,-0.96875 0.14453,-1.33593 0,-0.1211 -0.008,-0.24219 -0.0391,-0.36719 -0.0273,-0.125 -0.082,-0.25391 -0.17188,-0.3711 -0.14062,-0.1914 -0.30859,-0.32421 -0.46484,-0.44921 -0.23828,-0.1875 -0.46485,-0.36329 -0.61719,-0.54688 -0.0781,-0.0937 -0.13281,-0.18359 -0.17188,-0.27734 -0.0391,-0.0977 -0.0625,-0.20313 -0.0625,-0.33594 v -0.0625 c 0.008,-0.13672 0.0352,-0.22656 0.0703,-0.29688 0.0469,-0.10156 0.11328,-0.16796 0.20312,-0.2539 0.0469,-0.043 0.0977,-0.082 0.16797,-0.15625 0.0352,-0.0391 0.0742,-0.0859 0.11328,-0.16016 0.0391,-0.0703 0.0742,-0.17578 0.0742,-0.29297 0.004,-0.13281 -0.0469,-0.25781 -0.10156,-0.33984 -0.082,-0.12891 -0.16797,-0.19141 -0.25391,-0.25 -0.0898,-0.0586 -0.17969,-0.10938 -0.29297,-0.16797 -0.29687,-0.14453 -0.54297,-0.32031 -0.69922,-0.48828 -0.0781,-0.082 -0.13281,-0.16016 -0.16406,-0.22656 -0.0312,-0.0664 -0.043,-0.1211 -0.043,-0.17188 0.004,-0.0781 0.0234,-0.17969 0.16407,-0.34765 0.30468,-0.36329 0.53125,-0.8125 0.69531,-1.27735 0.16015,-0.46094 0.25781,-0.93359 0.25781,-1.35937 0,-0.16407 -0.0156,-0.32813 -0.0586,-0.48828 -0.043,-0.16016 -0.11328,-0.32422 -0.25782,-0.47266 -0.16406,-0.16406 -0.36718,-0.27344 -0.5625,-0.33594 -0.29296,-0.0898 -0.5625,-0.10937 -0.86718,-0.14844 -0.30469,-0.0352 -0.64453,-0.082 -1.05469,-0.19531 -0.53906,-0.14844 -0.87891,-0.37109 -1.08203,-0.60156 -0.19922,-0.23828 -0.28906,-0.49219 -0.29297,-0.82031 0,-0.41797 0.17578,-0.94922 0.54297,-1.50391 0.52734,-0.79297 1.65625,-2.60937 2.67578,-4.39453 0.50781,-0.89453 0.98828,-1.77734 1.34766,-2.53125 0.17968,-0.375 0.33203,-0.71875 0.4414,-1.01563 0.0586,-0.15234 0.10547,-0.29296 0.14063,-0.42578 0.0352,-0.13281 0.0586,-0.25781 0.0664,-0.39062 v -0.004 c 0.004,-0.0703 0.004,-0.14062 0.004,-0.21484 0,-0.64063 -0.13281,-1.22656 -0.25,-1.76563 -0.12109,-0.53515 -0.23047,-1.01953 -0.23047,-1.4414 l 0.004,-0.0742 c 0.004,-0.22266 0.0586,-0.64063 0.13672,-1.1211 0.11718,-0.72656 0.29296,-1.60937 0.44921,-2.35156 0.082,-0.375 0.15235,-0.71094 0.21485,-0.97656 0.0586,-0.26563 0.10937,-0.46484 0.1289,-0.53906 0.0234,-0.0859 0.0469,-0.19532 0.0781,-0.33985 0.12109,-0.54297 0.36328,-1.60156 0.86719,-2.93359 0.75781,-1.99609 2.10156,-4.59375 4.49218,-6.90234 2.39063,-2.30469 5.82032,-4.33985 10.82032,-5.21875 2.83984,-0.5 5.52343,-0.7461 8.02734,-0.7461 5.35938,0 9.87109,1.13672 13.35938,3.38672 3.48437,2.25391 5.96875,5.60938 7.26953,10.15234 0.85156,2.96875 1.20703,5.49219 1.20703,7.72657 0,3.3789 -0.8086,6.09765 -2.00781,8.71875 -1.19532,2.61718 -2.79688,5.125 -4.33985,8.02734 -1.96875,3.69141 -2.82812,6.47656 -2.92969,9.21875 l 0.51563,0.0195 -0.51563,-0.043 c 0,0.0156 -0.008,0.10547 -0.008,0.26563 0,0.98437 0.24219,4.6914 3.36719,11.05469 3.70703,7.53906 6.50781,12.90234 6.50781,12.90625 l 0.46094,-0.23829 v -0.51562 h -37.82422 v 0.51562 l 0.375,0.35157 -0.375,-0.35157"
       fill-opacity="1"
       fill-rule="nonzero"
       id="path10"
       style="stroke-width:1.59975;stroke-dasharray:none" />
  </g>
  <path
     fill="#00457d"
     d="M 98.819439,80.859431 H 60.999118 c 0,0 2.80078,-5.36328 6.5,-12.89843 3.60938,-7.33985 3.3086,-11.04688 3.3086,-11.04688 -0.0977,-2.64062 -0.92188,-5.33984 -2.86719,-8.99609 -4.08203,-7.66406 -8.64844,-12.75 -5.18359,-24.85547 3.28125,-11.46484 14.08984,-15.8203097 29.242181,-13.1601597 14.488281,2.5429697 16.390631,14.7460997 16.667971,15.7695297 0.12891,0.48438 0.91406,4.01563 0.94531,5.10938 0.0312,1.08984 -0.53515,2.24219 -0.47265,3.48828 0.0625,1.24609 3.55469,6.9375 4.58594,8.5 1.03125,1.5625 0.8789,3.14844 -1.1211,3.70313 -1.19531,0.33203 -1.85547,0.14453 -2.25781,0.55078 -0.41016,0.40625 -0.0234,2.08593 0.66406,2.89843 0.6875,0.8086 0.0312,1.5586 -0.90234,2.02735 -0.9336,0.46875 0.19922,0.30469 0.26172,1.42969 0.0625,1.125 -1.04688,1.50781 -1.42188,2.00781 -0.375,0.5 0.40235,1.91015 0.10156,5.65234 -0.25781,3.23828 -5.91015,3.83594 -9.03515,3.6875 -4.281251,-0.20312 -4.687501,2.5625 -4.687501,2.5625 -0.69141,9.08594 3.49219,13.57031 3.49219,13.57031"
     fill-opacity="1"
     fill-rule="nonzero"
     id="path11"
     style="stroke-width:1.59975;stroke-dasharray:none" />
  <g
     clip-path="url(#ed28748112)"
     id="g12"
     style="stroke-width:1.59975;stroke-dasharray:none"
     transform="translate(-116.43447,-111.81244)">
    <path
       fill="#ededed"
       d="m 215.25391,192.67187 v -0.51562 h -37.82032 v 0.51562 l 0.45703,0.23829 c 0,-0.004 2.80079,-5.36719 6.50782,-12.90625 3.125,-6.36329 3.36718,-10.07032 3.36718,-11.05469 0,-0.16016 -0.008,-0.2461 -0.008,-0.26172 l -0.51562,0.0391 0.51562,-0.0195 c -0.10156,-2.74219 -0.96094,-5.52734 -2.92578,-9.21875 -1.54687,-2.90234 -3.14844,-5.41016 -4.34375,-8.02734 -1.19922,-2.6211 -2.00781,-5.33985 -2.00781,-8.71875 0,-2.23047 0.35547,-4.75782 1.20703,-7.72657 1.30078,-4.54296 3.78516,-7.89843 7.26953,-10.15234 3.48828,-2.25 8,-3.38672 13.35938,-3.38672 2.5,0 5.18359,0.2461 8.02734,0.7461 3.55469,0.62109 6.31641,1.83593 8.47656,3.30859 3.23828,2.21484 5.12891,5.03516 6.23828,7.40234 0.55469,1.1836 0.91407,2.25391 1.14844,3.07422 0.11719,0.41016 0.19922,0.75781 0.26172,1.02735 0.0625,0.27343 0.0977,0.45312 0.13281,0.58203 0.0273,0.10156 0.10547,0.41797 0.19531,0.82812 0.13672,0.6211 0.31641,1.47266 0.46485,2.27344 0.0742,0.39844 0.14062,0.78125 0.1875,1.11328 0.0469,0.32813 0.0781,0.60938 0.082,0.77344 l 0.004,0.0742 c 0,0.42187 -0.10938,0.90625 -0.23047,1.4414 -0.11719,0.53907 -0.25,1.125 -0.25,1.76563 0,0.0742 0,0.14844 0.004,0.22265 v -0.004 c 0.008,0.13281 0.0352,0.25781 0.0664,0.39062 0.13281,0.49219 0.42187,1.12891 0.79687,1.87891 1.12891,2.23828 3.07032,5.37109 3.8086,6.48828 0.36719,0.55469 0.54297,1.08594 0.54297,1.50391 -0.004,0.32812 -0.0937,0.58203 -0.29297,0.82031 -0.20313,0.23047 -0.54297,0.45312 -1.07813,0.60156 -0.55078,0.15235 -0.96875,0.1836 -1.35156,0.23047 -0.19141,0.0234 -0.37891,0.0508 -0.57422,0.11328 -0.1914,0.0625 -0.39844,0.17188 -0.5625,0.33594 -0.14453,0.14844 -0.21484,0.3125 -0.25781,0.47266 -0.043,0.16015 -0.0586,0.32031 -0.0586,0.48828 0,0.42578 0.0977,0.89843 0.25781,1.35937 0.16406,0.46485 0.39062,0.91406 0.69531,1.27735 0.13672,0.16796 0.16016,0.26953 0.16406,0.34765 0,0.0508 -0.0117,0.10547 -0.043,0.17188 -0.0469,0.10156 -0.14453,0.22656 -0.29687,0.35156 -0.14844,0.12891 -0.34375,0.25391 -0.5625,0.36328 -0.15234,0.0781 -0.26563,0.14063 -0.38281,0.23047 -0.0547,0.0469 -0.11328,0.10156 -0.16797,0.1875 -0.0547,0.082 -0.10547,0.20703 -0.10156,0.33984 0,0.16016 0.0625,0.28516 0.11328,0.35938 0.0937,0.1289 0.16015,0.17578 0.21875,0.23047 0.082,0.0742 0.14453,0.13281 0.19531,0.21484 0.0469,0.0781 0.0898,0.17578 0.10156,0.35938 v -0.004 0.0625 c 0,0.17578 -0.0391,0.30469 -0.10547,0.42969 -0.10156,0.18359 -0.28906,0.36328 -0.51562,0.54297 -0.10938,0.0937 -0.23047,0.18359 -0.35156,0.28125 -0.11719,0.10156 -0.23829,0.21093 -0.34766,0.35546 l 0.004,-0.004 c -0.0898,0.11719 -0.14454,0.25 -0.17188,0.375 -0.0312,0.125 -0.0391,0.24609 -0.0391,0.36719 0.004,0.36718 0.0742,0.77343 0.14062,1.33593 0.0703,0.5625 0.13672,1.26953 0.13672,2.19141 0,0.48828 -0.0195,1.03906 -0.0664,1.65625 -0.0273,0.30078 -0.10547,0.5625 -0.23047,0.80859 -0.22266,0.42578 -0.59766,0.79688 -1.11328,1.11719 -0.76563,0.47656 -1.82813,0.8125 -2.94922,1.01953 -1.125,0.20703 -2.3086,0.28516 -3.33203,0.28516 -0.3086,0 -0.60157,-0.008 -0.875,-0.0195 -0.16016,-0.008 -0.31641,-0.0117 -0.46875,-0.0117 -1.02344,0 -1.84375,0.17187 -2.49219,0.4414 -0.97656,0.40625 -1.55469,1.03907 -1.86719,1.57032 -0.31641,0.53125 -0.38281,0.95703 -0.39062,1.0039 l -0.004,0.0312 c -0.0547,0.71094 -0.082,1.39453 -0.082,2.05078 0,3.94922 0.91406,6.91797 1.83594,8.89844 0.91796,1.98438 1.84375,2.98438 1.875,3.01563 l 0.375,-0.35157 v -0.51562 0.51562 l 0.3789,-0.35156 -0.0195,0.0195 0.0195,-0.0195 -0.0195,0.0195 0.0195,-0.0195 c -0.0234,-0.0273 -0.88281,-0.96875 -1.73437,-2.83203 -0.85157,-1.86719 -1.69532,-4.64844 -1.69922,-8.37891 0,-0.63281 0.0234,-1.28515 0.0781,-1.96875 l -0.51562,-0.0391 0.51172,0.0742 -0.19532,-0.0312 0.19532,0.0352 v -0.004 l -0.19532,-0.0312 0.19532,0.0352 c 0,-0.0156 0.10156,-0.55469 0.58984,-1.07032 0.24609,-0.26171 0.58984,-0.52343 1.09375,-0.72265 0.5,-0.19922 1.16406,-0.34375 2.04688,-0.34375 0.13281,0 0.27343,0.004 0.42187,0.0117 0.28906,0.0117 0.59766,0.0195 0.92188,0.0195 1.64062,0 3.65625,-0.1875 5.34765,-0.77735 0.84766,-0.29296 1.6211,-0.6914 2.21875,-1.24218 0.29688,-0.27735 0.55469,-0.59766 0.74219,-0.95703 0.1875,-0.36329 0.30859,-0.76954 0.34375,-1.20313 0.0508,-0.64453 0.0703,-1.22266 0.0703,-1.73828 0,-0.96875 -0.0703,-1.73047 -0.14062,-2.31641 -0.0742,-0.58203 -0.13672,-0.99609 -0.13672,-1.21093 0,-0.0703 0.008,-0.11329 0.0117,-0.12891 v -0.008 l -0.0781,-0.0312 0.0703,0.0508 0.008,-0.0195 -0.0781,-0.0312 0.0703,0.0508 v -0.004 c 0.0352,-0.0508 0.14063,-0.14844 0.28516,-0.26172 0.21484,-0.17187 0.50391,-0.38281 0.76563,-0.6914 0.1289,-0.15625 0.25,-0.33985 0.33593,-0.55469 0.0859,-0.21094 0.13672,-0.45703 0.13672,-0.71875 0,-0.0391 0,-0.0781 -0.004,-0.11719 v -0.004 c -0.0117,-0.25782 -0.0742,-0.48829 -0.16407,-0.67969 -0.13281,-0.28125 -0.32422,-0.46485 -0.44531,-0.57422 -0.0586,-0.0547 -0.0977,-0.0898 -0.0977,-0.0898 l -0.18359,0.16406 0.21875,-0.11719 c -0.0234,-0.0352 -0.0352,-0.0469 -0.0352,-0.0469 l -0.18359,0.16406 0.21875,-0.11719 -0.35937,0.19531 h 0.40625 c 0,-0.0859 -0.0273,-0.15625 -0.0469,-0.19531 l -0.35937,0.19531 h 0.40625 -0.40625 l 0.33984,0.21875 c 0.0312,-0.0391 0.0664,-0.125 0.0664,-0.21875 h -0.40625 l 0.33984,0.21875 -0.21875,-0.14062 0.17578,0.19531 c 0.008,-0.008 0.0234,-0.0195 0.043,-0.0547 l -0.21875,-0.14062 0.17578,0.19531 -0.0273,-0.0312 0.0273,0.0312 -0.0273,-0.0312 0.0273,0.0312 c 0.004,-0.004 0.0742,-0.0508 0.19141,-0.10937 0.37109,-0.1875 0.71484,-0.41407 0.98828,-0.70313 0.13672,-0.14453 0.2539,-0.30859 0.33984,-0.49219 0.0898,-0.18359 0.14453,-0.39453 0.14453,-0.61328 0,-0.35547 -0.14843,-0.71484 -0.40625,-1.01562 -0.1914,-0.21875 -0.3789,-0.57813 -0.50781,-0.94922 -0.13281,-0.3711 -0.20312,-0.75781 -0.20312,-1.01953 0,-0.0977 0.0117,-0.17969 0.0234,-0.22266 l 0.0117,-0.0312 -0.0898,-0.0469 0.0703,0.0703 0.0195,-0.0234 -0.0898,-0.0469 0.0703,0.0703 c 0.0352,-0.0352 0.0664,-0.0586 0.14844,-0.0859 0.12109,-0.0391 0.35156,-0.0664 0.67187,-0.10547 0.32032,-0.0352 0.72657,-0.0898 1.21094,-0.22656 0.67969,-0.1875 1.21484,-0.49609 1.58203,-0.91797 0.3711,-0.42578 0.54688,-0.96094 0.54297,-1.49609 0,-0.69532 -0.26562,-1.39844 -0.71094,-2.07032 -0.5039,-0.76562 -1.63672,-2.57812 -2.63672,-4.33984 -0.5039,-0.87891 -0.97265,-1.75 -1.3164,-2.46484 -0.17188,-0.35938 -0.3125,-0.67578 -0.40625,-0.92969 -0.0469,-0.12891 -0.0859,-0.24219 -0.10547,-0.32813 -0.0273,-0.0898 -0.0352,-0.15625 -0.0352,-0.17968 v -0.004 c -0.004,-0.0508 -0.004,-0.10547 -0.004,-0.16406 -0.004,-0.4961 0.10547,-1.00391 0.22656,-1.53906 0.11719,-0.53125 0.25,-1.08204 0.25391,-1.66797 0,-0.0312 -0.004,-0.0664 -0.004,-0.10157 -0.008,-0.32421 -0.0664,-0.7539 -0.14844,-1.26171 -0.125,-0.75 -0.30078,-1.64454 -0.46094,-2.39844 -0.0781,-0.37891 -0.15625,-0.71875 -0.21484,-0.99219 -0.0625,-0.27344 -0.10937,-0.46875 -0.14062,-0.57812 -0.0117,-0.0391 -0.0352,-0.14844 -0.0664,-0.29297 -0.125,-0.55469 -0.37891,-1.67969 -0.91016,-3.07813 -0.79687,-2.09375 -2.21093,-4.83203 -4.73828,-7.27343 -2.52734,-2.44532 -6.17187,-4.58985 -11.35937,-5.4961 -2.89453,-0.50781 -5.63672,-0.76172 -8.20703,-0.76172 -5.5,0 -10.21875,1.16797 -13.91797,3.55078 -3.69532,2.38282 -6.34766,5.98438 -7.70313,10.73828 -0.87109,3.04297 -1.24609,5.66797 -1.24609,8.00782 0,3.54687 0.86328,6.4414 2.10156,9.14843 1.24219,2.70313 2.84766,5.22657 4.36719,8.08204 1.92969,3.62109 2.71484,6.22656 2.8125,8.77343 v 0.0195 l 0.14062,-0.008 -0.14062,0.008 0.14062,-0.008 -0.14062,0.008 c 0,0.004 0.004,0.0664 0.004,0.1836 0,0.8125 -0.19921,4.35937 -3.26171,10.59765 -1.85157,3.76563 -3.47657,6.98829 -4.63672,9.26954 -0.57813,1.14062 -1.04688,2.04296 -1.36719,2.66406 -0.15625,0.30859 -0.28125,0.54687 -0.36719,0.70703 -0.082,0.16016 -0.125,0.24609 -0.125,0.24609 -0.0859,0.16016 -0.0781,0.34766 0.0156,0.50391 0.0937,0.15625 0.25781,0.25 0.4414,0.25 h 37.82032 c 0.20703,0 0.39453,-0.12109 0.47656,-0.3125 0.082,-0.1875 0.043,-0.40625 -0.0977,-0.55469 l -0.3789,0.35156"
       fill-opacity="1"
       fill-rule="nonzero"
       id="path12"
       style="stroke-width:1.59975;stroke-dasharray:none" />
  </g>
  <path
     fill="#00457d"
     d="M 120.58897,80.859431 H 82.768648 c 0,0 2.80079,-5.36328 6.5,-12.89843 3.609381,-7.33985 3.308601,-11.04688 3.308601,-11.04688 -0.0977,-2.64062 -0.92188,-5.33984 -2.867191,-8.99609 -4.08203,-7.66406 -8.64844,-12.75 -5.18359,-24.85547 3.28125,-11.46484 14.089841,-15.8203097 29.242182,-13.1601597 14.48829,2.5429697 16.39454,14.7460997 16.66797,15.7695297 0.12891,0.48438 0.91407,4.01563 0.94532,5.10938 0.0312,1.08984 -0.53516,2.24219 -0.47266,3.48828 0.0625,1.24609 3.55469,6.9375 4.58594,8.5 1.03125,1.5625 0.8789,3.14844 -1.1211,3.70313 -1.19531,0.33203 -1.85547,0.14453 -2.25781,0.55078 -0.40625,0.40625 -0.0234,2.08593 0.66406,2.89843 0.6875,0.8086 0.0312,1.5586 -0.90234,2.02735 -0.93359,0.46875 0.19922,0.30469 0.26172,1.42969 0.0625,1.125 -1.04688,1.50781 -1.42188,2.00781 -0.375,0.5 0.40235,1.91015 0.10157,5.65234 -0.25782,3.23828 -5.91016,3.83594 -9.03516,3.6875 -4.28125,-0.20312 -4.68359,2.5625 -4.68359,2.5625 -0.69532,9.08594 3.48828,13.57031 3.48828,13.57031"
     fill-opacity="1"
     fill-rule="nonzero"
     id="path13"
     style="stroke-width:1.59975;stroke-dasharray:none" />
  <g
     clip-path="url(#bf7062d051)"
     id="g14"
     style="stroke-width:1.59975;stroke-dasharray:none"
     transform="translate(-116.43447,-111.81244)">
    <path
       fill="#ededed"
       d="m 237.02344,192.67187 v -0.51562 h -37.82032 v 0.51562 l 0.45704,0.23829 c 0,-0.004 2.80468,-5.36719 6.50781,-12.90625 3.125,-6.36329 3.36719,-10.07032 3.36719,-11.05469 0,-0.16016 -0.008,-0.2461 -0.008,-0.26172 l -0.51562,0.0391 0.51562,-0.0195 c -0.10156,-2.74219 -0.96093,-5.52734 -2.92578,-9.21875 -1.54687,-2.90234 -3.14453,-5.41016 -4.34375,-8.02734 -1.19922,-2.6211 -2.00781,-5.33985 -2.00781,-8.71875 0,-2.23438 0.35547,-4.75782 1.20703,-7.72657 1.30078,-4.54296 3.78516,-7.89843 7.26953,-10.15234 3.48828,-2.25 8,-3.38672 13.35938,-3.38672 2.5039,0 5.18359,0.2461 8.03125,0.7461 3.55468,0.62109 6.3125,1.83593 8.47265,3.30859 3.23828,2.21484 5.12891,5.03516 6.23828,7.40234 0.55469,1.1836 0.91407,2.25391 1.14844,3.07422 0.11719,0.41016 0.19922,0.75781 0.26172,1.02735 0.0625,0.27343 0.10156,0.45312 0.13281,0.58203 0.0273,0.10156 0.10547,0.41797 0.19532,0.82812 0.13671,0.6211 0.3164,1.47266 0.46484,2.27344 0.0742,0.39844 0.14062,0.78125 0.1875,1.11328 0.0469,0.32813 0.0781,0.60938 0.082,0.77344 l 0.004,0.0742 c 0,0.42187 -0.10547,0.90625 -0.23047,1.4414 -0.11719,0.53907 -0.25,1.125 -0.25,1.76563 0,0.0742 0,0.14844 0.004,0.22265 v -0.004 c 0.008,0.13281 0.0352,0.25781 0.0664,0.39062 0.13281,0.49219 0.41797,1.12891 0.79688,1.87891 1.1289,2.23828 3.07031,5.37109 3.80859,6.48828 0.36719,0.55469 0.54297,1.08594 0.54297,1.50391 -0.004,0.32812 -0.0937,0.58203 -0.29297,0.82031 -0.20313,0.23047 -0.54297,0.45312 -1.07813,0.60156 -0.55078,0.15235 -0.96875,0.1836 -1.35156,0.23047 -0.1914,0.0234 -0.3789,0.0508 -0.57422,0.11328 -0.1914,0.0625 -0.39843,0.17188 -0.5625,0.33594 -0.14453,0.14844 -0.21484,0.3125 -0.25781,0.47266 -0.043,0.16015 -0.0586,0.32031 -0.0586,0.48828 0,0.42578 0.0977,0.89843 0.25781,1.35937 0.16406,0.46485 0.39062,0.91406 0.69531,1.27735 0.13672,0.16796 0.16016,0.26953 0.16406,0.34765 0,0.0508 -0.0117,0.10547 -0.043,0.17188 -0.0469,0.10156 -0.14454,0.22656 -0.29688,0.35156 -0.14844,0.12891 -0.34375,0.25391 -0.5625,0.36328 -0.15234,0.0781 -0.26562,0.14063 -0.37891,0.23047 -0.0586,0.0469 -0.11718,0.10156 -0.17187,0.1875 -0.0547,0.082 -0.10547,0.20703 -0.10156,0.33984 0,0.16016 0.0625,0.28516 0.11328,0.35938 0.0937,0.1289 0.16015,0.17578 0.21875,0.23047 0.0859,0.0742 0.14453,0.13672 0.19531,0.21484 0.0469,0.0781 0.0898,0.17578 0.10156,0.35938 l 0.004,0.0586 c -0.004,0.17578 -0.043,0.30469 -0.10938,0.42969 -0.10156,0.18359 -0.28906,0.36328 -0.51562,0.54297 -0.10938,0.0937 -0.23047,0.18359 -0.35156,0.28125 -0.11719,0.10156 -0.23828,0.21093 -0.34766,0.35546 l 0.004,-0.004 c -0.0898,0.11719 -0.14453,0.25 -0.17188,0.375 -0.0312,0.125 -0.0391,0.24609 -0.0391,0.36719 0.004,0.36718 0.0781,0.77343 0.14062,1.33593 0.0703,0.5586 0.13672,1.26953 0.13672,2.1875 0,0.49219 -0.0195,1.04297 -0.0664,1.66016 -0.0273,0.30078 -0.10547,0.5625 -0.23047,0.80859 -0.22266,0.42578 -0.59766,0.79688 -1.11328,1.11719 -0.76563,0.47656 -1.82813,0.8125 -2.94922,1.01953 -1.125,0.20703 -2.3086,0.28516 -3.33203,0.28516 -0.3086,0 -0.60157,-0.008 -0.875,-0.0195 -0.16016,-0.008 -0.31641,-0.0117 -0.46875,-0.0117 -1.02344,0 -1.83985,0.17187 -2.49219,0.4414 -0.97656,0.40625 -1.55469,1.03907 -1.86719,1.57032 -0.3164,0.53125 -0.38281,0.95703 -0.39062,1.0039 l -0.004,0.0312 c -0.0547,0.71094 -0.0781,1.39453 -0.0781,2.05078 0,3.94922 0.91015,6.91797 1.83203,8.89844 0.91797,1.98438 1.84765,2.98438 1.875,3.01563 l 0.375,-0.35157 v -0.51562 0.51562 l 0.3789,-0.35156 -0.0195,0.0156 0.0195,-0.0156 -0.0195,0.0156 0.0195,-0.0156 c -0.0234,-0.0273 -0.88281,-0.96875 -1.73437,-2.83203 -0.85156,-1.86719 -1.69531,-4.64844 -1.69531,-8.37891 0,-0.6289 0.0234,-1.28515 0.0742,-1.96875 l -0.51171,-0.0391 0.50781,0.0742 -0.19531,-0.0312 0.19531,0.0352 v -0.004 l -0.19531,-0.0312 0.19531,0.0352 c 0.004,-0.0156 0.10156,-0.55469 0.58984,-1.07032 0.2461,-0.26171 0.58985,-0.52343 1.09375,-0.72265 0.50391,-0.19922 1.16797,-0.34375 2.04688,-0.34375 0.13672,0 0.27343,0.004 0.42187,0.0117 0.28906,0.0117 0.59766,0.0195 0.92188,0.0195 1.64062,0 3.65625,-0.1875 5.35156,-0.77735 0.84375,-0.29296 1.61719,-0.6914 2.21484,-1.24218 0.30078,-0.27735 0.55469,-0.59766 0.74219,-0.95703 0.1875,-0.36329 0.30859,-0.76954 0.34375,-1.20313 0.0508,-0.64453 0.0703,-1.22266 0.0703,-1.74219 0,-0.96875 -0.0703,-1.72656 -0.14062,-2.3125 -0.0742,-0.58203 -0.13672,-0.99609 -0.13672,-1.21093 0,-0.0703 0.008,-0.11329 0.0117,-0.12891 v -0.008 l -0.0781,-0.0312 0.0703,0.0508 0.008,-0.0195 -0.0781,-0.0312 0.0703,0.0508 v -0.004 c 0.0352,-0.0508 0.14062,-0.14844 0.28515,-0.26172 0.21485,-0.17187 0.50781,-0.38281 0.76563,-0.6914 0.1289,-0.15625 0.25,-0.33985 0.33593,-0.55078 0.0859,-0.21485 0.14063,-0.46094 0.14063,-0.72266 -0.004,-0.0391 -0.004,-0.0781 -0.008,-0.11719 -0.0117,-0.26172 -0.0742,-0.49219 -0.16407,-0.68359 -0.13281,-0.28125 -0.32421,-0.46485 -0.44531,-0.57422 -0.0586,-0.0547 -0.0977,-0.0898 -0.0977,-0.0898 l -0.1836,0.16406 0.21875,-0.11719 c -0.0234,-0.0352 -0.0352,-0.0469 -0.0352,-0.0469 l -0.1836,0.16406 0.21875,-0.11719 -0.35937,0.19531 h 0.40625 c 0,-0.0859 -0.0273,-0.15625 -0.0469,-0.19531 l -0.35937,0.19531 h 0.40625 -0.40625 l 0.33984,0.21875 c 0.0312,-0.0391 0.0664,-0.1289 0.0664,-0.21875 h -0.40625 l 0.33984,0.21875 -0.21875,-0.14062 0.17578,0.19531 c 0.008,-0.008 0.0234,-0.0195 0.043,-0.0547 l -0.21875,-0.14062 0.17578,0.19531 -0.0273,-0.0312 0.0273,0.0312 -0.0273,-0.0312 0.0273,0.0312 c 0.004,-0.004 0.0742,-0.0508 0.19141,-0.10937 0.37109,-0.1875 0.71484,-0.41407 0.98828,-0.70313 0.13672,-0.14453 0.25391,-0.30859 0.33984,-0.49219 0.0898,-0.18359 0.14453,-0.39453 0.14453,-0.61328 0,-0.35547 -0.14843,-0.71484 -0.40625,-1.01562 -0.1914,-0.21875 -0.3789,-0.57813 -0.50781,-0.94922 -0.13281,-0.3711 -0.20312,-0.75781 -0.20312,-1.01953 0,-0.0977 0.0117,-0.17969 0.0234,-0.22266 l 0.0117,-0.0312 -0.0898,-0.0469 0.0703,0.0703 0.0195,-0.0234 -0.0898,-0.0469 0.0703,0.0703 c 0.0352,-0.0352 0.0664,-0.0586 0.14844,-0.0859 0.12109,-0.0391 0.35156,-0.0664 0.67187,-0.10547 0.32032,-0.0352 0.72657,-0.0898 1.21094,-0.22656 0.67969,-0.1875 1.21485,-0.49609 1.58203,-0.91797 0.3711,-0.42578 0.54688,-0.96094 0.54688,-1.49609 -0.004,-0.69532 -0.26953,-1.39844 -0.71485,-2.07032 -0.5039,-0.76562 -1.63671,-2.57812 -2.63671,-4.33984 -0.5,-0.87891 -0.97266,-1.75 -1.31641,-2.46484 -0.17188,-0.35938 -0.3125,-0.67578 -0.40625,-0.92969 -0.0469,-0.12891 -0.0859,-0.24219 -0.10547,-0.32813 -0.0273,-0.0898 -0.0352,-0.15625 -0.0352,-0.17968 v -0.004 c -0.004,-0.0508 -0.004,-0.10547 -0.004,-0.16406 -0.004,-0.4961 0.10547,-1.00391 0.22656,-1.53906 0.11719,-0.53125 0.25,-1.08204 0.25391,-1.66797 0,-0.0312 -0.004,-0.0664 -0.004,-0.10157 -0.008,-0.32421 -0.0664,-0.7539 -0.14844,-1.26171 -0.12109,-0.75 -0.30078,-1.64454 -0.46093,-2.39844 -0.0781,-0.37891 -0.15625,-0.71875 -0.21485,-0.99219 -0.0625,-0.27344 -0.10937,-0.46875 -0.14062,-0.57812 -0.0117,-0.0391 -0.0352,-0.14844 -0.0664,-0.29297 -0.125,-0.55469 -0.37891,-1.67969 -0.91016,-3.07813 -0.79687,-2.09375 -2.21093,-4.83203 -4.73828,-7.27343 -2.52734,-2.44532 -6.17187,-4.58985 -11.35937,-5.4961 -2.89453,-0.50781 -5.63672,-0.76172 -8.20703,-0.76172 -5.5,0 -10.21875,1.16797 -13.91797,3.55078 -3.69531,2.38282 -6.34766,5.98438 -7.70313,10.73828 -0.87109,3.04297 -1.24609,5.66407 -1.24609,8.00782 0,3.54687 0.86328,6.4414 2.10156,9.14453 1.24219,2.70703 2.84766,5.22656 4.3711,8.08594 1.92578,3.62109 2.71093,6.22656 2.80859,8.77343 v 0.0195 l 0.14062,-0.008 -0.14062,0.008 0.14062,-0.008 -0.14062,0.008 c 0,0.004 0.004,0.0664 0.004,0.1836 0,0.8125 -0.19922,4.35937 -3.26172,10.59765 -1.84766,3.76563 -3.47266,6.98829 -4.63672,9.26954 -0.57813,1.14062 -1.04688,2.04296 -1.36328,2.66406 -0.16016,0.30859 -0.28516,0.54687 -0.3711,0.70703 -0.082,0.16016 -0.125,0.24219 -0.125,0.24609 -0.0859,0.16016 -0.0781,0.34766 0.0156,0.50391 0.0937,0.15625 0.25781,0.25 0.4414,0.25 h 37.82032 c 0.20703,0 0.39453,-0.12109 0.47656,-0.3125 0.082,-0.1875 0.043,-0.40625 -0.0977,-0.55469 l -0.3789,0.35156"
       fill-opacity="1"
       fill-rule="nonzero"
       id="path14"
       style="stroke-width:1.59975;stroke-dasharray:none" />
  </g>
  <path
     fill="#00457d"
     d="m 21.534278,80.859431 h 37.82031 c 0,0 -2.80078,-5.36328 -6.5,-12.89843 -3.60547,-7.33985 -3.30859,-11.04688 -3.30859,-11.04688 0.0977,-2.64062 0.92187,-5.33984 2.86719,-8.99609 4.08203,-7.66406 8.64843,-12.75 5.18359,-24.85547 C 54.315528,11.597721 43.506938,7.2422513 28.354588,9.9024013 13.866308,12.445371 11.963968,24.648501 11.686618,25.671931 c -0.1289,0.48438 -0.91406,4.01563 -0.94531,5.10938 -0.0312,1.08984 0.53516,2.24219 0.47266,3.48828 -0.0625,1.24609 -3.5546899,6.9375 -4.5859399,8.5 -1.03125,1.5625 -0.87891,3.14844 1.12109,3.70313 1.19532,0.33203 1.85547,0.14453 2.2578199,0.55078 0.41015,0.40625 0.0234,2.08593 -0.6640699,2.89843 -0.6875,0.8086 -0.0312,1.5586 0.9023499,2.02735 0.93359,0.46875 -0.19922,0.30469 -0.2617199,1.42969 -0.0625,1.125 1.0468699,1.50781 1.4218699,2.00781 0.375,0.5 -0.40234,1.91015 -0.10156,5.65234 0.25781,3.23828 5.91016,3.83594 9.03516,3.6875 4.28125,-0.20312 4.68359,2.5625 4.68359,2.5625 0.69531,9.08594 -3.48828,13.57031 -3.48828,13.57031"
     fill-opacity="1"
     fill-rule="nonzero"
     id="path15"
     style="stroke-width:1.59975;stroke-dasharray:none" />
  <g
     clip-path="url(#ca87896874)"
     id="g16"
     style="stroke-width:1.59975;stroke-dasharray:none"
     transform="translate(-116.43447,-111.81244)">
    <path
       fill="#ededed"
       d="m 137.96875,192.67187 v 0.51563 h 37.82031 c 0.1836,0 0.34766,-0.0937 0.44141,-0.25 0.0937,-0.15625 0.10156,-0.34375 0.0156,-0.50391 0,0 -0.043,-0.0859 -0.125,-0.24609 -0.58593,-1.125 -3.13281,-6.05078 -6.37109,-12.64063 -3.06641,-6.23828 -3.26172,-9.78515 -3.26172,-10.59765 0,-0.0664 0,-0.11328 0.004,-0.14453 v -0.0352 l -0.17969,-0.0156 0.17969,0.0156 -0.17969,-0.0156 0.17969,0.0156 v -0.0234 c 0.0977,-2.54687 0.88281,-5.15234 2.8125,-8.77343 1.51953,-2.85547 3.125,-5.37891 4.36718,-8.08204 1.23829,-2.70703 2.10157,-5.60156 2.10157,-9.14843 0,-2.33985 -0.375,-4.96485 -1.2461,-8.00782 -1.35547,-4.7539 -4.00781,-8.35546 -7.70312,-10.73828 -3.69922,-2.38281 -8.41797,-3.55078 -13.91797,-3.55078 -2.57031,0 -5.3125,0.25391 -8.20703,0.76172 -3.6875,0.64453 -6.59766,1.91406 -8.87891,3.47266 -3.42187,2.34375 -5.42578,5.32812 -6.58984,7.8164 -0.58594,1.2461 -0.96094,2.36719 -1.20703,3.23047 -0.1211,0.42969 -0.21094,0.79297 -0.27735,1.07422 -0.0625,0.27734 -0.10546,0.48438 -0.12109,0.55078 -0.0391,0.14063 -0.11328,0.44922 -0.20312,0.8711 -0.14063,0.6289 -0.32422,1.49218 -0.47657,2.30859 -0.0742,0.40625 -0.14453,0.80078 -0.19531,1.14844 -0.0508,0.35547 -0.082,0.65625 -0.0898,0.89843 -0.004,0.0312 -0.004,0.0625 -0.004,0.10157 0.004,0.58593 0.13672,1.13672 0.25391,1.66797 0.12109,0.53515 0.22656,1.04296 0.22656,1.53906 0,0.0586 0,0.11719 -0.004,0.17187 v -0.004 c 0,0.0234 -0.008,0.0898 -0.0352,0.17968 -0.0859,0.33594 -0.35547,0.96094 -0.71875,1.67579 -1.08985,2.16406 -3.03516,5.30859 -3.7461,6.38671 -0.44531,0.67188 -0.71093,1.375 -0.71484,2.07032 0,0.53515 0.17578,1.07031 0.54687,1.49609 0.36719,0.42188 0.90235,0.73047 1.58204,0.91797 0.64453,0.17969 1.15234,0.21875 1.5,0.26172 0.17187,0.0195 0.30078,0.043 0.38281,0.0703 0.082,0.0273 0.11328,0.0508 0.14844,0.0859 l 0.0703,-0.0703 -0.0898,0.0469 0.0195,0.0234 0.0703,-0.0703 -0.0898,0.0469 c 0.004,0 0.0391,0.10156 0.0352,0.25391 0,0.26172 -0.0703,0.64843 -0.20312,1.01953 -0.12891,0.37109 -0.31641,0.73047 -0.50782,0.94922 -0.25781,0.30078 -0.40625,0.66015 -0.40625,1.01562 0,0.21875 0.0547,0.42969 0.14063,0.61328 0.13281,0.27735 0.33203,0.50391 0.5625,0.69922 0.23047,0.19141 0.49219,0.35547 0.76953,0.4961 0.11719,0.0586 0.1875,0.10546 0.19141,0.10937 l 0.0742,-0.0898 -0.0859,0.082 0.0117,0.008 0.0742,-0.0898 -0.0859,0.082 0.23828,-0.23047 -0.29297,0.14453 c 0.0234,0.0469 0.043,0.0703 0.0547,0.0859 l 0.23828,-0.23047 -0.29297,0.14453 0.375,-0.17969 h -0.41797 c 0,0.0664 0.0195,0.13672 0.043,0.17969 l 0.375,-0.17969 h -0.41797 0.39063 l -0.32422,-0.22265 c -0.0195,0.0273 -0.0664,0.10547 -0.0664,0.22265 h 0.39063 l -0.32422,-0.22265 0.16406,0.11328 -0.14844,-0.13281 -0.0156,0.0195 0.16406,0.11328 -0.14844,-0.13281 c -0.008,0.008 -0.0586,0.0508 -0.1289,0.11718 -0.10157,0.0937 -0.2461,0.23828 -0.35938,0.44532 -0.11719,0.20703 -0.20312,0.47265 -0.22266,0.78515 0,0.0352 -0.004,0.0742 -0.004,0.11719 0,0.34766 0.0937,0.66797 0.23828,0.92578 0.21484,0.38672 0.51562,0.64453 0.76953,0.85156 0.125,0.10157 0.24219,0.19141 0.33594,0.26953 0.0898,0.0742 0.15625,0.14063 0.18359,0.17969 l 0.0742,-0.0508 -0.082,0.0352 0.008,0.0156 0.0742,-0.0508 -0.082,0.0352 0.0117,-0.008 -0.0117,0.004 v 0.004 l 0.0117,-0.008 -0.0117,0.004 c 0,0.004 0.0117,0.0508 0.0117,0.14063 0,0.21484 -0.0625,0.6289 -0.13672,1.21093 -0.0703,0.58594 -0.14063,1.34766 -0.14063,2.31641 0,0.51562 0.0195,1.09375 0.0703,1.73828 0.0352,0.43359 0.15625,0.83984 0.34375,1.20313 0.33203,0.63281 0.85937,1.1289 1.48437,1.51562 0.9375,0.58203 2.10547,0.93359 3.30859,1.15625 1.19922,0.22266 2.4375,0.30469 3.51563,0.30469 0.32422,0 0.63281,-0.008 0.92187,-0.0195 0.14844,-0.008 0.28516,-0.0117 0.42188,-0.0117 0.91016,0 1.58594,0.15234 2.09375,0.36328 0.76172,0.31641 1.15625,0.76953 1.37891,1.14453 0.11328,0.1875 0.17968,0.35547 0.21484,0.46875 0.0195,0.0586 0.0312,0.10156 0.0352,0.12891 l 0.008,0.0273 v 0.004 l 0.26953,-0.043 -0.26953,0.0391 v 0.004 l 0.26953,-0.043 -0.26953,0.0391 0.50781,-0.0742 -0.51172,0.0391 c 0.0508,0.6836 0.0742,1.33594 0.0742,1.96875 0,3.78907 -0.87109,6.60157 -1.73437,8.46485 -0.4336,0.92969 -0.86329,1.625 -1.1836,2.08203 -0.16015,0.23047 -0.29297,0.39844 -0.38281,0.50781 -0.043,0.0547 -0.0781,0.0977 -0.10156,0.1211 l -0.0234,0.0273 -0.004,0.008 0.0195,0.0195 -0.0195,-0.0195 0.0195,0.0195 -0.0195,-0.0195 c -0.14062,0.14844 -0.17968,0.36719 -0.0977,0.5586 0.082,0.1875 0.26953,0.30859 0.47656,0.30859 v -0.51563 l 0.375,0.35157 c 0.0273,-0.0312 0.95703,-1.03125 1.875,-3.01563 0.92187,-1.98047 1.83594,-4.94922 1.83203,-8.89844 0,-0.65625 -0.0234,-1.33984 -0.0781,-2.05078 l -0.004,-0.0312 c -0.008,-0.0625 -0.125,-0.80468 -0.79688,-1.55859 -0.33593,-0.375 -0.8125,-0.74609 -1.46093,-1.01563 -0.65235,-0.26953 -1.46875,-0.4414 -2.49219,-0.4414 -0.15234,0 -0.30859,0.004 -0.46875,0.0117 -0.27344,0.0117 -0.56641,0.0195 -0.875,0.0195 -1.55859,0.004 -3.49609,-0.1875 -5.01172,-0.71875 -0.75781,-0.26172 -1.40625,-0.60938 -1.85547,-1.02735 -0.22265,-0.20703 -0.40234,-0.43359 -0.52734,-0.67578 -0.125,-0.24609 -0.20313,-0.50781 -0.23047,-0.80859 -0.0469,-0.61719 -0.0664,-1.16797 -0.0664,-1.65625 0,-0.92188 0.0664,-1.62891 0.13282,-2.19141 0.0664,-0.5625 0.14062,-0.96875 0.14453,-1.33593 0,-0.1211 -0.008,-0.24219 -0.0391,-0.36719 -0.0312,-0.125 -0.082,-0.25391 -0.17187,-0.3711 -0.14453,-0.1914 -0.30859,-0.32421 -0.46484,-0.44921 -0.23828,-0.1875 -0.46875,-0.36329 -0.61719,-0.54688 -0.0781,-0.0937 -0.13281,-0.18359 -0.17188,-0.28125 -0.043,-0.0937 -0.0664,-0.19922 -0.0664,-0.33203 l 0.004,-0.0625 c 0.008,-0.13672 0.0352,-0.22656 0.0664,-0.29688 0.0508,-0.10156 0.11719,-0.16796 0.20703,-0.2539 0.0469,-0.043 0.0977,-0.082 0.16797,-0.15625 0.0352,-0.0391 0.0703,-0.0859 0.11328,-0.16016 0.0391,-0.0703 0.0742,-0.17578 0.0742,-0.29297 0,-0.13281 -0.0469,-0.25781 -0.10156,-0.33984 -0.0859,-0.12891 -0.17188,-0.19141 -0.25391,-0.25 -0.0898,-0.0586 -0.18359,-0.10938 -0.29687,-0.16797 -0.29297,-0.14453 -0.54297,-0.32031 -0.69532,-0.48828 -0.0781,-0.082 -0.13281,-0.16016 -0.16406,-0.22656 -0.0312,-0.0664 -0.043,-0.1211 -0.043,-0.17188 0,-0.0781 0.0234,-0.17969 0.16407,-0.34765 0.30468,-0.36329 0.52734,-0.8125 0.6914,-1.27735 0.16406,-0.46094 0.26172,-0.93359 0.26172,-1.35937 0,-0.16407 -0.0156,-0.32813 -0.0586,-0.48828 -0.043,-0.16016 -0.11328,-0.32422 -0.25782,-0.47266 -0.16406,-0.16406 -0.37109,-0.27344 -0.5625,-0.33594 -0.29296,-0.0898 -0.5664,-0.10937 -0.87109,-0.14844 -0.30469,-0.0352 -0.64062,-0.082 -1.05469,-0.19531 -0.53515,-0.14844 -0.875,-0.37109 -1.07812,-0.60156 -0.19922,-0.23828 -0.28906,-0.49219 -0.29297,-0.82031 0,-0.41797 0.17578,-0.94922 0.54297,-1.50391 0.52344,-0.79297 1.65625,-2.60937 2.67578,-4.39453 0.50781,-0.89453 0.98828,-1.77734 1.34766,-2.53125 0.17968,-0.375 0.33203,-0.71875 0.4414,-1.01563 0.0586,-0.15234 0.10547,-0.29296 0.14063,-0.42578 0.0312,-0.13281 0.0586,-0.25781 0.0664,-0.39062 v -0.004 c 0.004,-0.0703 0.004,-0.14062 0.004,-0.21484 0,-0.64063 -0.13281,-1.22656 -0.25391,-1.76563 -0.12109,-0.53515 -0.22656,-1.01953 -0.22656,-1.4414 l 0.004,-0.0742 c 0.004,-0.22266 0.0547,-0.64063 0.13281,-1.1211 0.12109,-0.72656 0.29687,-1.60937 0.45312,-2.35156 0.0781,-0.375 0.15235,-0.71094 0.21485,-0.97656 0.0586,-0.26563 0.10547,-0.46484 0.1289,-0.53906 0.0234,-0.0859 0.043,-0.19532 0.0781,-0.33985 0.12109,-0.54297 0.36328,-1.60156 0.86719,-2.93359 0.75781,-1.99609 2.10156,-4.59375 4.48828,-6.90234 2.39453,-2.30469 5.82422,-4.33985 10.82422,-5.21875 2.83984,-0.5 5.52343,-0.7461 8.02734,-0.7461 5.35937,0 9.87109,1.13672 13.35547,3.38672 3.48828,2.25391 5.96875,5.60938 7.27344,10.15234 0.85156,2.96875 1.20703,5.4961 1.20703,7.72657 -0.004,3.3789 -0.8086,6.09765 -2.00782,8.71875 -1.19921,2.61718 -2.79687,5.125 -4.34375,8.02734 -1.96484,3.69141 -2.82421,6.47656 -2.92578,9.21875 l 0.51563,0.0195 -0.51563,-0.043 c 0,0.0156 -0.008,0.10547 -0.008,0.26563 0,0.98437 0.24219,4.6914 3.36719,11.05469 3.70703,7.53906 6.50781,12.90234 6.50781,12.90625 l 0.45703,-0.23829 v -0.51562 h -37.82031 v 0.51562 l 0.375,0.35157 -0.375,-0.35157"
       fill-opacity="1"
       fill-rule="nonzero"
       id="path16"
       style="stroke-width:1.59975;stroke-dasharray:none" />
  </g>
  <path
     fill="#00457d"
     d="m 58.506938,80.343811 h -14.16016 c 0.33984,-0.5 0.77344,-1.21484 1.20703,-2.14844 0.92188,-1.98047 1.83594,-4.94922 1.83203,-8.89844 0,-0.65625 -0.0234,-1.33984 -0.0781,-2.05078 l -0.004,-0.0312 c -0.008,-0.0625 -0.125,-0.80468 -0.79687,-1.55859 -0.33594,-0.375 -0.8125,-0.74609 -1.46094,-1.01563 -0.64844,-0.26953 -1.46875,-0.4414 -2.49219,-0.4414 -0.15234,0 -0.30859,0.004 -0.46875,0.0117 -0.27344,0.0117 -0.56641,0.0195 -0.875,0.0195 -0.008,0 -0.0117,0 -0.0195,0 -1.55469,0 -3.48047,-0.19141 -4.99219,-0.71875 -0.75781,-0.26172 -1.40625,-0.60938 -1.85156,-1.02735 -0.22656,-0.20703 -0.40234,-0.43359 -0.52734,-0.67578 -0.12891,-0.24609 -0.20704,-0.50781 -0.23047,-0.80859 -0.0508,-0.61719 -0.0703,-1.16797 -0.0703,-1.66016 0,-0.91797 0.0664,-1.6289 0.13282,-2.1875 0.0664,-0.5625 0.14062,-0.96875 0.14453,-1.33593 0,-0.1211 -0.008,-0.24219 -0.0391,-0.36719 -0.0273,-0.125 -0.082,-0.25391 -0.17188,-0.3711 -0.14062,-0.1914 -0.30859,-0.32421 -0.46484,-0.44921 -0.23828,-0.1875 -0.46485,-0.36329 -0.61719,-0.54688 -0.0781,-0.0937 -0.13281,-0.18359 -0.17188,-0.27734 -0.0391,-0.0977 -0.0625,-0.20313 -0.0625,-0.33594 v -0.0625 c 0.008,-0.13672 0.0352,-0.22656 0.0703,-0.29688 0.0469,-0.10156 0.11328,-0.16796 0.20312,-0.2539 0.0469,-0.043 0.0977,-0.082 0.16797,-0.15625 0.0352,-0.0391 0.0742,-0.0859 0.11328,-0.16016 0.0391,-0.0703 0.0742,-0.17578 0.0742,-0.29297 0.004,-0.13281 -0.0469,-0.25781 -0.10156,-0.33984 -0.082,-0.12891 -0.16797,-0.19141 -0.25391,-0.25 -0.0898,-0.0586 -0.17969,-0.10938 -0.29297,-0.16797 -0.29687,-0.14453 -0.54297,-0.32031 -0.69922,-0.48828 -0.0781,-0.082 -0.13281,-0.16016 -0.16406,-0.22656 -0.0312,-0.0664 -0.043,-0.1211 -0.043,-0.17188 0.004,-0.0781 0.0234,-0.17969 0.16407,-0.34765 0.30468,-0.36329 0.53125,-0.8125 0.69531,-1.27735 0.16015,-0.46094 0.25781,-0.93359 0.25781,-1.35937 0,-0.16407 -0.0156,-0.32813 -0.0586,-0.48828 -0.043,-0.16016 -0.11328,-0.32422 -0.25782,-0.47266 -0.16406,-0.16406 -0.36718,-0.27344 -0.5625,-0.33594 -0.29296,-0.0898 -0.5625,-0.10937 -0.86718,-0.14844 -0.30469,-0.0352 -0.64453,-0.082 -1.05469,-0.19531 -0.53906,-0.14844 -0.87891,-0.37109 -1.08203,-0.60156 -0.19922,-0.23828 -0.28906,-0.49219 -0.29297,-0.82031 0,-0.41797 0.17578,-0.94922 0.54297,-1.50391 0.52734,-0.79297 1.65625,-2.60937 2.67578,-4.39453 0.50781,-0.89453 0.98828,-1.77734 1.34766,-2.53125 0.17968,-0.375 0.33203,-0.71875 0.4414,-1.01563 0.0586,-0.15234 0.10547,-0.29296 0.14063,-0.42578 0.0352,-0.13281 0.0586,-0.25781 0.0664,-0.39062 v -0.004 c 0.004,-0.0703 0.004,-0.14062 0.004,-0.21484 0,-0.64063 -0.13281,-1.22656 -0.25,-1.76563 -0.12109,-0.53515 -0.23047,-1.01953 -0.23047,-1.4414 l 0.004,-0.0742 c 0.004,-0.22266 0.0586,-0.64063 0.13672,-1.1211 0.11718,-0.72656 0.29296,-1.60937 0.44921,-2.35156 0.082,-0.375 0.15235,-0.71094 0.21485,-0.97656 0.0586,-0.26563 0.10937,-0.46484 0.1289,-0.53906 0.0195,-0.082 0.043,-0.17188 0.0703,-0.30078 0.10547,-0.47266 0.30859,-1.3711 0.71484,-2.52735 0.60938,-1.72656 1.67578,-4.00781 3.54688,-6.17187 1.84375,-2.13281 4.45703,-4.15625 8.21093,-5.44531 2.60547,1.01953 4.8086,2.49609 6.58203,4.43359 0.91797,1.0039 1.72266,2.13281 2.39844,3.39062 0.66016,1.21875 1.20313,2.5586 1.6211,4.01953 0.85156,2.96875 1.20703,5.4961 1.20703,7.72657 -0.004,3.3789 -0.8086,6.09765 -2.00782,8.71875 -1.19921,2.61718 -2.79687,5.125 -4.34375,8.02734 -1.96093,3.68359 -2.82031,6.46875 -2.92578,9.20703 -0.004,0.0273 -0.008,0.11328 -0.008,0.2461 0,0.004 0,0.004 0,0.008 0,0 0,0 0,0.004 0,0.98438 0.24609,4.69141 3.36719,11.05079 2.88281,5.87109 5.22265,10.42578 6.11719,12.15234"
     fill-opacity="1"
     fill-rule="nonzero"
     id="path17"
     style="stroke-width:1.59975;stroke-dasharray:none" />
  <path
     fill="#00457d"
     d="m 58.506938,80.343811 h -14.16016 14.16016 m -1.40625,-57.14063 c -0.41797,-1.46093 -0.96094,-2.80078 -1.6211,-4.01953 0.66016,1.21875 1.20313,2.5586 1.6211,4.01953"
     fill-opacity="1"
     fill-rule="nonzero"
     id="path18"
     style="stroke-width:1.59975;stroke-dasharray:none" />
  <path
     fill="#cbbcb2"
     d="m 50.057718,56.957091 v -0.0234 c 0.0977,-2.54687 0.88281,-5.15234 2.8125,-8.77343 1.51953,-2.85547 3.125,-5.37891 4.36718,-8.08204 1.23829,-2.70703 2.10157,-5.60156 2.10157,-9.14843 0,3.54687 -0.86328,6.4414 -2.10157,9.14843 -1.24218,2.70313 -2.84765,5.22657 -4.36718,8.08204 -1.92969,3.62109 -2.71485,6.22656 -2.8125,8.77343 v 0.0234 m 6.03906,-38.78516 c -0.55469,-0.95703 -1.1875,-1.84375 -1.88672,-2.66015 0.69922,0.8164 1.33203,1.70312 1.88672,2.66015 m -1.88672,-2.66015 c 0,-0.004 -0.004,-0.008 -0.008,-0.008 0.004,0 0.008,0.004 0.008,0.008"
     fill-opacity="1"
     fill-rule="nonzero"
     id="path19"
     style="stroke-width:1.59975;stroke-dasharray:none" />
  <g
     clip-path="url(#55ec11f01d)"
     id="g20"
     style="stroke-width:1.59975;stroke-dasharray:none"
     transform="translate(-116.43447,-111.81244)">
    <path
       fill="#ededed"
       d="m 176.08984,193.08984 c 0.0586,-0.0391 0.10547,-0.0937 0.14063,-0.15234 0.0508,-0.082 0.0742,-0.17578 0.0742,-0.26563 0,0.0898 -0.0234,0.1836 -0.0742,0.26563 -0.0352,0.0586 -0.082,0.11328 -0.14063,0.15234"
       fill-opacity="1"
       fill-rule="nonzero"
       id="path20"
       style="stroke-width:1.59975;stroke-dasharray:none" />
  </g>
  <path
     fill="#cbbcb2"
     d="m 44.346778,80.343811 h -1.28125 c 0.0898,-0.11328 0.21875,-0.27734 0.37109,-0.5 0.32032,-0.45703 0.75,-1.14844 1.1836,-2.08203 0.86328,-1.86328 1.73437,-4.67578 1.73437,-8.46485 0,-0.62109 -0.0195,-1.26953 -0.0742,-1.9414 l -0.004,-0.0195 c -0.004,-0.0273 -0.0156,-0.0703 -0.0312,-0.12891 -0.0391,-0.11328 -0.10547,-0.28125 -0.21485,-0.46875 -0.22656,-0.375 -0.62109,-0.82812 -1.38281,-1.14453 -0.50781,-0.21094 -1.18359,-0.36328 -2.09375,-0.36328 -0.13281,0 -0.27344,0.004 -0.42187,0.0117 -0.28907,0.0117 -0.59766,0.0195 -0.92188,0.0195 -1.07812,0 -2.31641,-0.082 -3.51562,-0.30469 -1.20313,-0.22266 -2.3711,-0.57422 -3.3086,-1.15625 -0.625,-0.38672 -1.15234,-0.88281 -1.48437,-1.51562 -0.1875,-0.36329 -0.3086,-0.76954 -0.34375,-1.20313 -0.0508,-0.64453 -0.0703,-1.22266 -0.0703,-1.74219 0,-0.96875 0.0703,-1.72656 0.14063,-2.3125 0.0742,-0.58203 0.13672,-0.99609 0.13672,-1.21093 0,-0.0742 -0.008,-0.11719 -0.0117,-0.13282 -0.0312,-0.0391 -0.0937,-0.10156 -0.17578,-0.16797 -0.0937,-0.0781 -0.21094,-0.16796 -0.33594,-0.26953 -0.25391,-0.20312 -0.55469,-0.46484 -0.76953,-0.85156 -0.14453,-0.25781 -0.23828,-0.57422 -0.23438,-0.92578 0,-0.043 0,-0.082 0.004,-0.12109 v 0.004 c 0.0156,-0.3125 0.10156,-0.57812 0.21875,-0.78515 0.0508,-0.0937 0.10547,-0.17188 0.16406,-0.24219 -0.21875,-0.11719 -0.42578,-0.25781 -0.60937,-0.41016 -0.23047,-0.19531 -0.42578,-0.42187 -0.5625,-0.69922 -0.0859,-0.18359 -0.14063,-0.39453 -0.14063,-0.61328 0,-0.35547 0.15235,-0.71484 0.41016,-1.01562 0.1875,-0.21875 0.375,-0.57813 0.50391,-0.94922 0.13281,-0.3711 0.20312,-0.75781 0.20312,-1.01953 0,-0.1211 -0.0195,-0.21485 -0.0312,-0.2461 -0.0273,-0.0273 -0.0625,-0.0469 -0.13281,-0.0703 -0.082,-0.0273 -0.21094,-0.0508 -0.38281,-0.0703 -0.34766,-0.043 -0.85547,-0.082 -1.5,-0.26172 -0.67969,-0.1875 -1.21485,-0.49609 -1.58204,-0.91797 -0.37109,-0.42578 -0.54687,-0.96094 -0.54687,-1.49609 0.004,-0.69532 0.27344,-1.39844 0.71484,-2.07032 0.71094,-1.07812 2.65625,-4.22265 3.7461,-6.38671 0.36328,-0.71485 0.63281,-1.33985 0.72265,-1.67579 0.0234,-0.0859 0.0312,-0.15234 0.0312,-0.17578 0.004,-0.0547 0.004,-0.11328 0.004,-0.17187 0,-0.4961 -0.10547,-1.00391 -0.22656,-1.53906 -0.11719,-0.53125 -0.25,-1.08204 -0.25391,-1.66797 0,-0.0391 0.004,-0.0703 0.004,-0.10157 0.008,-0.24218 0.043,-0.54296 0.0937,-0.89843 0.0508,-0.34766 0.11718,-0.74219 0.19531,-1.14844 0.14844,-0.81641 0.33203,-1.67969 0.47266,-2.30859 0.0937,-0.42188 0.16406,-0.73047 0.20312,-0.8711 0.008,-0.0391 0.0312,-0.13281 0.0586,-0.25781 0.0273,-0.12891 0.0664,-0.28906 0.10938,-0.48438 0.0937,-0.3789 0.22266,-0.88281 0.40625,-1.46875 0.37109,-1.17187 0.95703,-2.6875 1.89844,-4.29296 1.71875,-2.94532 4.64843,-6.21094 9.54687,-8.20703 1.78516,0.54687 3.40235,1.29296 4.84766,2.22265 2.36719,1.52735 4.26953,3.5625 5.65234,6.13281 -0.67578,-1.25781 -1.48047,-2.38672 -2.39844,-3.39062 -1.77343,-1.9375 -3.97656,-3.41406 -6.58203,-4.43359 -3.7539,1.28906 -6.36718,3.3125 -8.21093,5.44531 -1.8711,2.16406 -2.9375,4.44531 -3.54688,6.17187 -0.40625,1.15625 -0.60937,2.05469 -0.71484,2.52735 -0.0273,0.1289 -0.0508,0.21875 -0.0703,0.30078 -0.0195,0.0742 -0.0703,0.27343 -0.1289,0.53906 -0.0625,0.26562 -0.13281,0.60156 -0.21485,0.97656 -0.15625,0.74219 -0.33203,1.625 -0.44921,2.35156 -0.0781,0.48047 -0.13282,0.89844 -0.13672,1.1211 l -0.004,0.0742 c 0,0.42187 0.10938,0.90625 0.23047,1.4414 0.11719,0.53907 0.25,1.125 0.25,1.76563 0,0.0742 0,0.14453 -0.004,0.21484 v 0.004 c -0.008,0.13281 -0.0312,0.25781 -0.0664,0.39062 -0.0352,0.13282 -0.082,0.27344 -0.14063,0.42578 -0.10937,0.29688 -0.26172,0.64063 -0.4414,1.01563 -0.35938,0.75391 -0.83985,1.63672 -1.34766,2.53125 -1.01953,1.78516 -2.14844,3.60156 -2.67578,4.39453 -0.36719,0.55469 -0.54297,1.08594 -0.54297,1.50391 0.004,0.32812 0.0937,0.58203 0.29297,0.82031 0.20312,0.23047 0.54297,0.45312 1.08203,0.60156 0.41016,0.11328 0.75,0.16016 1.05469,0.19531 0.30468,0.0391 0.57422,0.0586 0.86718,0.14844 0.19532,0.0625 0.39844,0.17188 0.5625,0.33594 0.14454,0.14844 0.21485,0.3125 0.25782,0.47266 0.043,0.16015 0.0586,0.32421 0.0586,0.48828 0,0.42578 -0.0977,0.89843 -0.25781,1.35937 -0.16406,0.46485 -0.39063,0.91406 -0.69531,1.27735 -0.14063,0.16796 -0.16016,0.26953 -0.16407,0.34765 0,0.0508 0.0117,0.10547 0.043,0.17188 0.0312,0.0664 0.0859,0.14453 0.16406,0.22656 0.15625,0.16797 0.40235,0.34375 0.69922,0.48828 0.11328,0.0586 0.20313,0.10938 0.29297,0.16797 0.0859,0.0586 0.17188,0.12109 0.25391,0.25 0.0547,0.082 0.10547,0.20703 0.10156,0.33984 0,0.11719 -0.0352,0.22266 -0.0742,0.29297 -0.0391,0.0742 -0.0781,0.1211 -0.11328,0.16016 -0.0703,0.0742 -0.12109,0.11328 -0.16797,0.15625 -0.0898,0.0859 -0.15625,0.15234 -0.20312,0.2539 -0.0352,0.0703 -0.0625,0.16016 -0.0703,0.29688 v 0.0625 c 0,0.13281 0.0234,0.23828 0.0625,0.33594 0.0391,0.0937 0.0937,0.18359 0.17188,0.27734 0.15234,0.18359 0.37891,0.35938 0.61719,0.54688 0.15625,0.125 0.32422,0.25781 0.46484,0.44921 0.0898,0.11719 0.14453,0.2461 0.17188,0.3711 0.0312,0.125 0.0391,0.24609 0.0391,0.36719 -0.004,0.36718 -0.0781,0.77343 -0.14453,1.33593 -0.0664,0.5586 -0.13282,1.26953 -0.13282,2.1875 0,0.49219 0.0195,1.04297 0.0703,1.66016 0.0234,0.30078 0.10156,0.5625 0.23047,0.80859 0.125,0.24219 0.30078,0.46875 0.52734,0.67578 0.44531,0.41797 1.09375,0.76563 1.85156,1.02735 1.51172,0.52734 3.4375,0.71875 4.99219,0.71875 0.008,0 0.0117,0 0.0195,0 0.30859,0 0.60156,-0.008 0.875,-0.0195 0.16016,-0.008 0.31641,-0.0117 0.46875,-0.0117 1.02344,0 1.84375,0.17187 2.49219,0.4414 0.64844,0.26954 1.125,0.64063 1.46094,1.01563 0.67187,0.75391 0.78906,1.49609 0.79687,1.55859 l 0.004,0.0312 c 0.0547,0.71094 0.0781,1.39453 0.0781,2.05078 0.004,3.94922 -0.91015,6.91797 -1.83203,8.89844 -0.43359,0.9336 -0.86719,1.64844 -1.20703,2.14844"
     fill-opacity="1"
     fill-rule="nonzero"
     id="path21"
     style="stroke-width:1.59975;stroke-dasharray:none" />
  <g
     clip-path="url(#36176333dc)"
     id="g22"
     style="stroke-width:1.59975;stroke-dasharray:none"
     transform="translate(-116.43447,-111.81244)">
    <path
       fill="#ededed"
       d="m 175.78906,193.1875 h -16.05078 c -0.20703,0 -0.39062,-0.12109 -0.47266,-0.30859 -0.082,-0.19141 -0.0469,-0.41016 0.0937,-0.5586 l 0.008,-0.004 0.0234,-0.0312 c 0.0195,-0.0234 0.0547,-0.0664 0.10157,-0.1211 0.004,0 0.004,-0.004 0.008,-0.008 h 15.44141 c -0.89454,-1.72656 -3.23438,-6.28125 -6.11719,-12.15234 -3.1211,-6.35938 -3.36719,-10.06641 -3.36719,-11.05079 0,-0.004 0,-0.004 0,-0.004 0,-0.004 0,-0.004 0,-0.008 0,-0.13282 0.004,-0.21875 0.008,-0.2461 0.10547,-2.73828 0.96485,-5.52344 2.92578,-9.20703 1.54688,-2.90234 3.14454,-5.41016 4.34375,-8.02734 1.19922,-2.6211 2.00391,-5.33985 2.00782,-8.71875 0,-2.23047 -0.35547,-4.75782 -1.20703,-7.72657 -0.41797,-1.46093 -0.96094,-2.80078 -1.6211,-4.01953 -1.38281,-2.57031 -3.28515,-4.60546 -5.65234,-6.13281 -1.44531,-0.92969 -3.0625,-1.67578 -4.84766,-2.22265 0.4375,-0.17969 0.89453,-0.34766 1.36719,-0.50391 0.0547,-0.0195 0.10937,-0.0273 0.16406,-0.0273 0.0625,0 0.125,0.0117 0.1836,0.0312 2.8125,1.07421 5.22265,2.66406 7.14843,4.76562 0.1211,0.13672 0.24219,0.26953 0.35938,0.41016 0.004,0 0.008,0.004 0.008,0.008 0.69922,0.8164 1.33203,1.70312 1.88672,2.66015 0.83203,1.42579 1.5,3.01172 1.99609,4.75 0.8711,3.04297 1.2461,5.66797 1.2461,8.00782 0,3.54687 -0.86328,6.4414 -2.10157,9.14843 -1.24218,2.70313 -2.84765,5.22657 -4.36718,8.08204 -1.92969,3.62109 -2.71485,6.22656 -2.8125,8.77343 v 0.0586 c -0.004,0.0312 -0.004,0.0781 -0.004,0.14453 0,0.8125 0.19531,4.35937 3.26172,10.59765 3.23828,6.58985 5.78516,11.51563 6.37109,12.64063 0.082,0.16016 0.125,0.24609 0.125,0.24609 0.0391,0.0742 0.0586,0.15625 0.0586,0.23828 0,0.0898 -0.0234,0.1836 -0.0742,0.26563 -0.0352,0.0586 -0.082,0.11328 -0.14063,0.15234 -0.0859,0.0625 -0.1914,0.0977 -0.30078,0.0977"
       fill-opacity="1"
       fill-rule="nonzero"
       id="path22"
       style="stroke-width:1.59975;stroke-dasharray:none" />
  </g>
  <path
     fill="#00457d"
     d="M 97.776469,80.343811 H 83.616308 c 0.89453,-1.72656 3.23438,-6.28125 6.11719,-12.15234 3.085941,-6.28516 3.359371,-9.97657 3.367191,-11.01563 0,-0.0117 0,-0.0234 0,-0.0352 0,-0.004 0,-0.004 0,-0.004 0,-0.13672 -0.004,-0.21875 -0.008,-0.25 -0.10156,-2.73828 -0.96093,-5.52344 -2.925781,-9.21094 -1.54687,-2.90234 -3.14453,-5.41016 -4.34375,-8.02734 -1.19922,-2.6211 -2.00781,-5.33985 -2.00781,-8.71875 0,-2.19141 0.34375,-4.66797 1.16016,-7.57032 0.0156,-0.0508 0.0312,-0.10156 0.0469,-0.15625 0.38672,-1.34765 0.875,-2.58984 1.46484,-3.72656 0.71094,-1.375 1.56641,-2.60547 2.55469,-3.68359 1.77344,-1.9375 3.976561,-3.41406 6.582031,-4.43359 5.363281,1.84375 8.406251,5.17968 10.175781,8.19921 0.89454,1.52344 1.45313,2.96485 1.80469,4.07813 0.17578,0.55859 0.30078,1.03515 0.38672,1.40234 0.043,0.1836 0.0781,0.33985 0.10547,0.46485 0.0312,0.1289 0.0508,0.21875 0.0703,0.30078 0.0273,0.10156 0.10547,0.41797 0.19531,0.82812 0.13672,0.6211 0.31641,1.47266 0.46485,2.27344 0.0742,0.39844 0.14062,0.78125 0.1875,1.11328 0.0469,0.32422 0.0781,0.60156 0.082,0.76953 l 0.004,0.0781 c 0,0.42187 -0.10938,0.90625 -0.23047,1.4414 -0.11719,0.53907 -0.25,1.125 -0.25,1.76563 0,0.0742 0,0.14844 0.004,0.22265 0.008,0.12891 0.0352,0.25391 0.0664,0.38672 0.13281,0.49219 0.42187,1.12891 0.79687,1.87891 1.12891,2.23828 3.07032,5.37109 3.8086,6.48828 0.36719,0.55469 0.54297,1.08594 0.53906,1.50391 0,0.32812 -0.0898,0.58203 -0.28906,0.82031 -0.20313,0.23047 -0.54297,0.45312 -1.07813,0.60156 -0.55078,0.15235 -0.96875,0.1836 -1.35156,0.23047 -0.19141,0.0234 -0.37891,0.0508 -0.57422,0.11328 -0.1914,0.0625 -0.39844,0.17188 -0.5625,0.33594 -0.14453,0.14453 -0.21484,0.3125 -0.25781,0.47266 -0.043,0.16015 -0.0586,0.32421 -0.0586,0.48828 0,0.42578 0.0977,0.89843 0.25781,1.35937 0.16406,0.46485 0.39062,0.91406 0.69531,1.27735 0.13672,0.16796 0.16016,0.26953 0.16406,0.34765 0,0.0508 -0.0117,0.10547 -0.043,0.17188 -0.0469,0.10156 -0.14453,0.22656 -0.29687,0.35547 -0.14844,0.125 -0.34375,0.25 -0.5625,0.35937 -0.15234,0.0781 -0.26563,0.14063 -0.38281,0.23047 -0.0547,0.0469 -0.11328,0.10156 -0.16797,0.1875 -0.0547,0.082 -0.10547,0.20703 -0.10156,0.33984 0,0.16016 0.0625,0.28516 0.11328,0.35938 0.0937,0.1289 0.16015,0.17578 0.21875,0.23047 0.082,0.0742 0.14453,0.13672 0.19531,0.21484 0.0469,0.0781 0.0898,0.17578 0.10156,0.35547 v 0.0625 c 0,0.17578 -0.0391,0.30469 -0.10547,0.42969 -0.10156,0.18359 -0.28906,0.36328 -0.51562,0.54297 -0.10938,0.0937 -0.23047,0.18359 -0.34766,0.28125 -0.12109,0.10156 -0.24219,0.21093 -0.35156,0.35546 l 0.004,-0.004 c -0.0898,0.11719 -0.14454,0.25 -0.17188,0.375 -0.0312,0.125 -0.0391,0.24609 -0.0391,0.36719 0.004,0.36718 0.0742,0.77343 0.14062,1.33593 0.0703,0.5625 0.13672,1.26953 0.13672,2.19141 0,0.48828 -0.0195,1.03906 -0.0664,1.65625 -0.0273,0.30078 -0.10547,0.5625 -0.23438,0.80859 -0.21875,0.42578 -0.59375,0.79688 -1.10937,1.11719 -0.76563,0.47656 -1.82813,0.8125 -2.94922,1.01953 -1.1211,0.20703 -2.30469,0.28516 -3.32813,0.28516 0,0 -0.004,0 -0.004,0 0,0 -0.004,0 -0.004,0 -0.30859,0 -0.59766,-0.004 -0.87109,-0.0195 -0.156251,-0.008 -0.312501,-0.0117 -0.464851,-0.0117 0,0 -0.004,0 -0.004,0 0,0 -0.004,0 -0.004,0 -1.02344,0 -1.83984,0.17187 -2.48828,0.4414 -0.97656,0.40625 -1.55469,1.03907 -1.86719,1.57032 -0.31641,0.53125 -0.38281,0.95703 -0.39062,1.0039 l -0.004,0.0312 c -0.0547,0.71094 -0.082,1.39453 -0.082,2.05078 0,3.94922 0.91406,6.91797 1.83594,8.89844 0.43359,0.9336 0.86718,1.64844 1.20703,2.14844"
     fill-opacity="1"
     fill-rule="nonzero"
     id="path23"
     style="stroke-width:1.59975;stroke-dasharray:none" />
  <path
     fill="#00457d"
     d="m 89.733498,68.191471 c 3.085941,-6.28516 3.359371,-9.97657 3.367191,-11.01563 -0.008,1.03906 -0.28125,4.73047 -3.367191,11.01563 m 3.367191,-11.05079 c 0,-0.004 0,-0.004 0,-0.004 0,-0.13672 -0.004,-0.21875 -0.008,-0.25 -0.10156,-2.73828 -0.96093,-5.52344 -2.925781,-9.21094 1.964851,3.6875 2.824221,6.47266 2.925781,9.21094 0.004,0.0312 0.008,0.11328 0.008,0.25 0,0 0,0 0,0.004 m -8.125001,-33.78125 c 0.0156,-0.0508 0.0312,-0.10156 0.0469,-0.15625 0.38281,-1.34765 0.875,-2.58984 1.46484,-3.72656 -0.58984,1.13672 -1.07812,2.37891 -1.46484,3.72656 -0.0156,0.0547 -0.0312,0.10547 -0.0469,0.15625"
     fill-opacity="1"
     fill-rule="nonzero"
     id="path24"
     style="stroke-width:1.59975;stroke-dasharray:none" />
  <path
     fill="#cbbcb2"
     d="m 88.807718,67.734431 c 3.054681,-6.22265 3.261721,-9.76171 3.261721,-10.58984 0,0.82813 -0.20704,4.36719 -3.261721,10.58984 m 3.261721,-10.59765 c 0,-0.082 -0.004,-0.13281 -0.004,-0.16016 0,0.0273 0.004,0.0781 0.004,0.16016 m -0.004,-0.1836 v -0.0195 c -0.0977,-2.54687 -0.88281,-5.15234 -2.808591,-8.77343 -0.95313,-1.78125 -1.9336,-3.4336 -2.83985,-5.08204 0.90625,1.64844 1.88672,3.30079 2.83985,5.08204 1.925781,3.62109 2.710931,6.22656 2.808591,8.77343 v 0.0195"
     fill-opacity="1"
     fill-rule="nonzero"
     id="path25"
     style="stroke-width:1.59975;stroke-dasharray:none" />
  <path
     fill="#cbbcb2"
     d="m 99.057719,80.343811 h -1.28125 c -0.33985,-0.5 -0.77344,-1.21484 -1.20703,-2.14844 -0.92188,-1.98047 -1.83594,-4.94922 -1.83594,-8.89844 0,-0.65625 0.0273,-1.33984 0.082,-2.05078 l 0.004,-0.0312 c 0.008,-0.0469 0.0742,-0.47265 0.39062,-1.0039 0.3125,-0.53125 0.89063,-1.16407 1.86719,-1.57032 0.64844,-0.26953 1.46484,-0.4414 2.48828,-0.4414 0,0 0.004,0 0.004,0 0,0 0.004,0 0.004,0 0.15235,0 0.3086,0.004 0.464851,0.0117 0.27343,0.0156 0.5625,0.0195 0.87109,0.0195 0,0 0.004,0 0.004,0 0,0 0.004,0 0.004,0 1.02344,0 2.20703,-0.0781 3.32813,-0.28516 1.12109,-0.20703 2.18359,-0.54297 2.94922,-1.01953 0.51562,-0.32031 0.89062,-0.69141 1.10937,-1.11719 0.12891,-0.24609 0.20703,-0.50781 0.23438,-0.80859 0.0469,-0.61719 0.0664,-1.16797 0.0664,-1.65625 0,-0.92188 -0.0664,-1.62891 -0.13672,-2.19141 -0.0664,-0.5625 -0.13672,-0.96875 -0.14062,-1.33593 0,-0.1211 0.008,-0.24219 0.0391,-0.36719 0.0273,-0.125 0.082,-0.25781 0.17188,-0.375 l -0.004,0.004 c 0.10937,-0.14453 0.23047,-0.2539 0.35156,-0.35546 0.11719,-0.0977 0.23828,-0.1875 0.34766,-0.28125 0.22656,-0.17969 0.41406,-0.35938 0.51562,-0.54297 0.0664,-0.125 0.10547,-0.25391 0.10547,-0.42969 v -0.0625 c -0.0117,-0.17969 -0.0547,-0.27734 -0.10156,-0.35547 -0.0508,-0.0781 -0.11328,-0.14062 -0.19531,-0.21484 -0.0586,-0.0547 -0.125,-0.10157 -0.21875,-0.23047 -0.0508,-0.0742 -0.11328,-0.19922 -0.11328,-0.35938 -0.004,-0.13281 0.0469,-0.25781 0.10156,-0.33984 0.0547,-0.0859 0.11328,-0.14063 0.16797,-0.1875 0.11718,-0.0898 0.23047,-0.15234 0.38281,-0.23047 0.21875,-0.10937 0.41406,-0.23437 0.5625,-0.35937 0.15234,-0.12891 0.25,-0.25391 0.29687,-0.35547 0.0312,-0.0664 0.043,-0.1211 0.043,-0.17188 -0.004,-0.0781 -0.0273,-0.17969 -0.16406,-0.34765 -0.30469,-0.36329 -0.53125,-0.8125 -0.69531,-1.27735 -0.16016,-0.46094 -0.25781,-0.93359 -0.25781,-1.35937 0,-0.16407 0.0156,-0.32813 0.0586,-0.48828 0.043,-0.16016 0.11328,-0.32813 0.25781,-0.47266 0.16406,-0.16406 0.3711,-0.27344 0.5625,-0.33594 0.19531,-0.0625 0.38281,-0.0898 0.57422,-0.11328 0.38281,-0.0469 0.80078,-0.0781 1.35156,-0.23047 0.53516,-0.14844 0.875,-0.37109 1.07813,-0.60156 0.19922,-0.23828 0.28906,-0.49219 0.28906,-0.82031 0.004,-0.41797 -0.17187,-0.94922 -0.53906,-1.50391 -0.73828,-1.11719 -2.67969,-4.25 -3.8086,-6.48828 -0.375,-0.75 -0.66406,-1.38672 -0.79687,-1.87891 -0.0312,-0.13281 -0.0586,-0.25781 -0.0664,-0.38672 -0.004,-0.0742 -0.004,-0.14843 -0.004,-0.22265 0,-0.64063 0.13281,-1.22656 0.25,-1.76563 0.12109,-0.53515 0.23047,-1.01953 0.23047,-1.4414 l -0.004,-0.0781 c -0.004,-0.16797 -0.0352,-0.44531 -0.082,-0.76953 -0.0469,-0.33203 -0.11328,-0.71484 -0.1875,-1.11328 -0.14844,-0.80078 -0.32813,-1.65234 -0.46485,-2.27344 -0.0898,-0.41015 -0.16796,-0.72656 -0.19531,-0.82812 -0.0195,-0.082 -0.0391,-0.17188 -0.0703,-0.30078 -0.0273,-0.125 -0.0625,-0.28125 -0.10547,-0.46485 -0.0859,-0.36719 -0.21094,-0.84375 -0.38672,-1.40234 -0.35156,-1.11328 -0.91015,-2.55469 -1.80469,-4.07813 -1.76953,-3.01953 -4.8125,-6.35546 -10.175781,-8.19921 -2.60547,1.01953 -4.808591,2.49609 -6.582031,4.43359 -0.98828,1.07812 -1.84375,2.30859 -2.55469,3.68359 1.39844,-2.70703 3.35547,-4.83984 5.804691,-6.42578 1.44531,-0.92969 3.06641,-1.67578 4.85156,-2.22265 3.312501,1.35156 5.726571,3.28125 7.472661,5.30078 1.97656,2.28906 3.09766,4.6875 3.74219,6.5039 0.42578,1.21094 0.64062,2.16797 0.74609,2.64844 0.0273,0.125 0.0508,0.21875 0.0586,0.25391 0.0312,0.10937 0.0781,0.30468 0.14062,0.57812 0.0586,0.27344 0.13672,0.61328 0.21484,0.99219 0.16016,0.7539 0.33594,1.64844 0.46094,2.39844 0.082,0.50781 0.14063,0.9375 0.14844,1.26171 v 0.004 c 0,0.0352 0,0.0664 0.004,0.0977 -0.004,0.58593 -0.13672,1.13672 -0.25391,1.66797 -0.12109,0.53125 -0.22656,1.04296 -0.22656,1.53906 0,0.0547 0,0.11328 0.004,0.16797 0,0.0234 0.008,0.0898 0.0352,0.17968 0.0195,0.0859 0.0586,0.19922 0.10547,0.32813 0.0937,0.25391 0.23437,0.57031 0.40625,0.92969 0.34375,0.71484 0.8125,1.58593 1.3164,2.46484 1,1.76172 2.13282,3.57422 2.63672,4.33984 0.44141,0.67188 0.71094,1.375 0.71094,2.07032 0.004,0.53515 -0.17187,1.07031 -0.54297,1.49609 -0.36719,0.42188 -0.90234,0.73047 -1.58203,0.91797 -0.48437,0.13672 -0.89062,0.19141 -1.21094,0.22656 -0.32031,0.0391 -0.55078,0.0664 -0.67187,0.10547 -0.0703,0.0234 -0.10156,0.043 -0.13281,0.0703 l -0.008,0.0234 c -0.0117,0.043 -0.0234,0.125 -0.0234,0.22266 0,0.26172 0.0703,0.64843 0.20312,1.01953 0.12891,0.37109 0.31641,0.73047 0.50781,0.94922 0.25391,0.30078 0.40625,0.66015 0.40625,1.01562 0,0.21875 -0.0547,0.42969 -0.14062,0.61328 -0.0898,0.1836 -0.20703,0.34766 -0.34375,0.49219 -0.23438,0.24609 -0.51953,0.44922 -0.82813,0.61719 0.0781,0.0977 0.15625,0.20703 0.21875,0.34375 0.0898,0.1914 0.15235,0.42187 0.16407,0.67969 l 0.004,0.0117 c 0,0.0312 0,0.0664 0,0.10938 0,0.26172 -0.0508,0.50781 -0.13672,0.71875 -0.0859,0.21484 -0.20703,0.39844 -0.33593,0.55469 -0.25782,0.30859 -0.55079,0.51953 -0.76563,0.6914 -0.13672,0.10547 -0.23437,0.19922 -0.27734,0.25391 -0.008,0.0156 -0.0117,0.0586 -0.0117,0.12891 -0.004,0.21484 0.0625,0.6289 0.13281,1.21093 0.0742,0.58594 0.14453,1.34766 0.14453,2.31641 0,0.51562 -0.0195,1.09375 -0.0703,1.73828 -0.0352,0.43359 -0.15625,0.83984 -0.34375,1.20313 -0.1875,0.35937 -0.44531,0.67968 -0.74219,0.95703 -0.59765,0.55078 -1.37109,0.94922 -2.21875,1.24218 -1.6914,0.58985 -3.70703,0.77735 -5.34765,0.77735 -0.32422,0 -0.63282,-0.008 -0.925791,-0.0195 -0.14453,-0.008 -0.28515,-0.0117 -0.41796,-0.0117 -0.88282,0 -1.54688,0.14453 -2.04688,0.34375 -0.50391,0.19922 -0.84766,0.46094 -1.09375,0.72265 -0.44922,0.47266 -0.57031,0.96485 -0.58594,1.05469 -0.0547,0.67578 -0.0742,1.32422 -0.0742,1.94531 0,3.73047 0.84375,6.51172 1.69532,8.37891 0.65625,1.43359 1.3164,2.32031 1.59375,2.66797 m -8.890631,-32.66797 c -1.54687,-2.90234 -3.14453,-5.41016 -4.34375,-8.02734 -1.19922,-2.6211 -2.00781,-5.33985 -2.00781,-8.71875 0,-2.19141 0.34375,-4.66797 1.16016,-7.57032 -0.81641,2.90235 -1.16016,5.37891 -1.16016,7.57032 0,3.3789 0.80859,6.09765 2.00781,8.71875 1.19922,2.61718 2.79688,5.125 4.34375,8.02734"
     fill-opacity="1"
     fill-rule="nonzero"
     id="path26"
     style="stroke-width:1.59975;stroke-dasharray:none" />
  <g
     clip-path="url(#7bb213b8e0)"
     id="g27"
     style="stroke-width:1.59975;stroke-dasharray:none"
     transform="translate(-116.43447,-111.81244)">
    <path
       fill="#ededed"
       d="m 215.25391,193.1875 h -16.05079 c -0.18359,0 -0.34765,-0.0937 -0.4414,-0.25 -0.0508,-0.082 -0.0742,-0.17578 -0.0742,-0.26563 0,-0.082 0.0195,-0.16406 0.0586,-0.23828 0,-0.004 0.043,-0.0859 0.125,-0.24609 0.0859,-0.16016 0.21094,-0.39844 0.3711,-0.70703 0.3164,-0.6211 0.78515,-1.52344 1.36328,-2.66406 1.16406,-2.28125 2.78906,-5.50391 4.63672,-9.26954 3.05468,-6.22265 3.26172,-9.76171 3.26172,-10.58984 0,-0.004 0,-0.008 0,-0.008 0,-0.082 -0.004,-0.13281 -0.004,-0.16016 0,-0.0156 0,-0.0234 0,-0.0234 v -0.0195 c -0.0977,-2.54687 -0.88281,-5.15234 -2.80859,-8.77343 -0.95313,-1.78125 -1.9336,-3.4336 -2.83985,-5.08204 -0.54687,-0.99609 -1.0664,-1.98437 -1.53125,-3.0039 -1.23828,-2.70313 -2.10156,-5.59766 -2.10156,-9.14453 0,-2.34375 0.375,-4.96485 1.24609,-8.00782 0.88672,-3.10937 2.32422,-5.72265 4.25,-7.82812 1.92578,-2.10156 4.33594,-3.69141 7.14844,-4.76562 0.0586,-0.0195 0.12109,-0.0312 0.18359,-0.0312 0.0547,0 0.11329,0.008 0.16407,0.0273 0.47265,0.15625 0.92968,0.32422 1.36718,0.50391 -1.78515,0.54687 -3.40625,1.29296 -4.85156,2.22265 -2.44922,1.58594 -4.40625,3.71875 -5.80469,6.42578 -0.58984,1.13672 -1.08203,2.37891 -1.46484,3.72656 -0.0156,0.0547 -0.0312,0.10547 -0.0469,0.15625 -0.81641,2.90235 -1.16016,5.37891 -1.16016,7.57032 0,3.3789 0.80859,6.09765 2.00781,8.71875 1.19922,2.61718 2.79688,5.125 4.34375,8.02734 1.96485,3.6875 2.82422,6.47266 2.92578,9.21094 0.004,0.0312 0.008,0.11328 0.008,0.25 0,0 0,0 0,0.004 0,0.0117 0,0.0234 0,0.0352 -0.008,1.03906 -0.28125,4.73047 -3.36719,11.01563 -2.88281,5.87109 -5.22266,10.42578 -6.11719,12.15234 h 15.44141 c 0.0859,0.10156 0.13672,0.15625 0.14062,0.16406 0.14063,0.14844 0.17969,0.36719 0.0977,0.55469 -0.082,0.19141 -0.26953,0.3125 -0.47656,0.3125"
       fill-opacity="1"
       fill-rule="nonzero"
       id="path27"
       style="stroke-width:1.59975;stroke-dasharray:none" />
  </g>
  <path
     fill="#00457d"
     d="m 80.276468,80.343811 h -18.42969 c 0.89453,-1.72656 3.23047,-6.28125 6.11719,-12.15234 1.90234,-3.875 2.73828,-6.76563 3.09765,-8.65625 0.36328,1.89062 1.19532,4.78125 3.09766,8.65625 2.88672,5.87109 5.22266,10.42578 6.11719,12.15234"
     fill-opacity="1"
     fill-rule="nonzero"
     id="path28"
     style="stroke-width:1.59975;stroke-dasharray:none" />
  <path
     fill="#00457d"
     d="m 67.963968,68.191471 c 1.90234,-3.875 2.73828,-6.76563 3.09765,-8.65625 -0.35937,1.89062 -1.19531,4.78125 -3.09765,8.65625"
     fill-opacity="1"
     fill-rule="nonzero"
     id="path29"
     style="stroke-width:1.59975;stroke-dasharray:none" />
  <path
     fill="#00457d"
     d="m 71.061618,54.609431 c -0.39453,-2.05468 -1.23828,-4.2539 -2.66406,-6.93359 -0.89453,-1.67578 -1.80469,-3.22266 -2.64844,-4.73437 -0.61328,-1.10157 -1.1914,-2.19141 -1.69531,-3.29297 -1.19922,-2.6211 -2.00781,-5.33985 -2.00781,-8.71875 0,-2.19922 0.34765,-4.6875 1.17187,-7.60547 0.0117,-0.0391 0.0234,-0.082 0.0352,-0.1211 0.0234,-0.0898 0.0508,-0.17578 0.0781,-0.26562 0,-0.008 0.004,-0.0156 0.008,-0.0234 0,-0.004 0,-0.008 0,-0.0117 0.004,-0.004 0.004,-0.008 0.004,-0.0117 1.39844,-4.61328 4.03516,-7.97265 7.71875,-10.16796 3.76953,2.24609 6.4375,5.70703 7.8086,10.48046 0.85156,2.96875 1.20703,5.49219 1.20703,7.72657 0,3.3789 -0.8086,6.09765 -2.00781,8.71875 -1.19532,2.61718 -2.79688,5.125 -4.33985,8.02734 -1.42969,2.67969 -2.27344,4.87891 -2.66797,6.93359"
     fill-opacity="1"
     fill-rule="nonzero"
     id="path30"
     style="stroke-width:1.59975;stroke-dasharray:none" />
  <path
     fill="#00457d"
     d="m 71.061618,54.609431 c -0.39453,-2.05468 -1.23828,-4.2539 -2.66406,-6.93359 -0.89453,-1.67578 -1.80469,-3.22266 -2.64844,-4.73437 0.84375,1.51171 1.75391,3.05859 2.64844,4.73437 1.42578,2.67969 2.26953,4.87891 2.66406,6.93359 m -7.84375,-31.28515 c 0.0117,-0.0391 0.0234,-0.082 0.0352,-0.1211 0.0234,-0.0898 0.0508,-0.17578 0.0781,-0.26562 -0.0273,0.0898 -0.0547,0.17578 -0.0781,0.26562 -0.0117,0.0391 -0.0234,0.082 -0.0352,0.1211 m 0.11328,-0.38672 c 0,-0.008 0.004,-0.0156 0.008,-0.0234 -0.004,0.008 -0.008,0.0156 -0.008,0.0234 m 0.008,-0.0352 c 0.004,-0.004 0.004,-0.008 0.004,-0.0117 0,0.004 0,0.008 -0.004,0.0117"
     fill-opacity="1"
     fill-rule="nonzero"
     id="path31"
     style="stroke-width:1.59975;stroke-dasharray:none" />
  <path
     fill="#cbbcb2"
     d="m 67.038188,67.734431 c 3.05468,-6.22265 3.26171,-9.76171 3.26171,-10.58984 0,0.82813 -0.20703,4.36719 -3.26171,10.58984 m 3.26171,-10.59765 c 0,-0.082 -0.004,-0.13281 -0.004,-0.16016 0,0.0273 0.004,0.0781 0.004,0.16016 m -0.004,-0.1836 v -0.0195 c -0.0977,-2.54687 -0.88281,-5.15234 -2.8125,-8.77343 1.92969,3.62109 2.71484,6.22656 2.8125,8.77343 v 0.0195 m -4.32813,-11.52734 c -0.30859,-0.54687 -0.61718,-1.08594 -0.91797,-1.62109 0.30079,0.53515 0.60938,1.07422 0.91797,1.62109 m -3.70703,-22.50391 c 0.37891,-1.32812 0.85938,-2.5664 1.4336,-3.71093 -0.57422,1.14453 -1.05469,2.38281 -1.4336,3.71093"
     fill-opacity="1"
     fill-rule="nonzero"
     id="path32"
     style="stroke-width:1.59975;stroke-dasharray:none" />
  <path
     fill="#cbbcb2"
     d="m 81.436618,80.343811 h -1.16015 c -0.89453,-1.72656 -3.23047,-6.28125 -6.11719,-12.15234 -1.90234,-3.875 -2.73438,-6.76563 -3.09766,-8.65625 0.23047,-1.21094 0.26953,-2.01563 0.26953,-2.39844 0,-0.13672 -0.004,-0.21875 -0.008,-0.25 -0.0273,-0.75 -0.11328,-1.5 -0.26172,-2.27735 0.39453,-2.05468 1.23828,-4.2539 2.66797,-6.93359 1.54297,-2.90234 3.14453,-5.41016 4.33985,-8.02734 1.19921,-2.6211 2.00781,-5.33985 2.00781,-8.71875 0,-2.23438 -0.35547,-4.75782 -1.20703,-7.72657 -1.3711,-4.77343 -4.03907,-8.23437 -7.8086,-10.48046 -3.68359,2.19531 -6.32031,5.55468 -7.71875,10.16796 1.32813,-4.38671 3.77735,-7.64062 7.17969,-9.83984 0.50391,-0.32422 1.02734,-0.625 1.57422,-0.90234 3.72656,2.38281 6.40234,5.99609 7.76562,10.77343 0.8711,3.04297 1.2461,5.66407 1.2461,8.00782 0,3.54687 -0.86328,6.4414 -2.10156,9.14453 -1.24219,2.70703 -2.84766,5.22656 -4.36719,8.08594 -1.92969,3.62109 -2.71094,6.22656 -2.8086,8.77343 l -0.004,0.0234 v 0.0352 c -0.004,0.0312 -0.004,0.0781 -0.004,0.14453 0,0.8125 0.19922,4.35937 3.26172,10.59765 3.20703,6.52735 5.73438,11.42188 6.35156,12.60938 m -15.6875,-37.40234 c -0.61328,-1.10157 -1.1914,-2.19141 -1.69531,-3.29297 -1.19922,-2.6211 -2.00781,-5.33985 -2.00781,-8.71875 0,-2.19922 0.34765,-4.6875 1.17187,-7.60547 -0.82422,2.91797 -1.17187,5.40625 -1.17187,7.60547 0,3.3789 0.80859,6.09765 2.00781,8.71875 0.50391,1.10156 1.08203,2.1914 1.69531,3.29297 m -2.41759,-20.00391 v 0 m 0.008,-0.0234 c 0,-0.004 0,-0.008 0,-0.0117 0,0.004 0,0.008 0,0.0117"
     fill-opacity="1"
     fill-rule="nonzero"
     id="path33"
     style="stroke-width:1.59975;stroke-dasharray:none" />
  <g
     clip-path="url(#2377dcd7e6)"
     id="g34"
     style="stroke-width:1.59975;stroke-dasharray:none"
     transform="translate(-116.43447,-111.81244)">
    <path
       fill="#ededed"
       d="m 197.5625,193.1875 h -20.12891 c -0.18359,0 -0.34765,-0.0937 -0.4414,-0.25 -0.0508,-0.082 -0.0742,-0.17578 -0.0742,-0.26563 0,-0.082 0.0195,-0.16406 0.0586,-0.23828 0,0 0.043,-0.0859 0.125,-0.24609 0.0859,-0.16016 0.21094,-0.39844 0.36719,-0.70703 0.32031,-0.6211 0.78906,-1.52344 1.36719,-2.66406 1.16015,-2.28125 2.78515,-5.50391 4.63672,-9.26954 3.05468,-6.22265 3.26171,-9.76171 3.26171,-10.58984 0,-0.004 0,-0.008 0,-0.008 0,-0.082 -0.004,-0.13281 -0.004,-0.16016 0,-0.0156 0,-0.0234 0,-0.0234 v -0.0195 c -0.0977,-2.54687 -0.88281,-5.15234 -2.8125,-8.77343 -0.5,-0.94141 -1.01172,-1.84766 -1.51563,-2.73438 -0.30859,-0.54687 -0.61718,-1.08594 -0.91797,-1.62109 -0.6914,-1.23828 -1.35546,-2.46485 -1.93359,-3.72657 -1.23828,-2.70703 -2.10156,-5.60156 -2.10156,-9.14843 0,-2.33985 0.375,-4.96485 1.24609,-8.00782 0.37891,-1.32812 0.85938,-2.5664 1.4336,-3.71093 1.63671,-3.26172 4.05078,-5.78516 7.11328,-7.53516 0.0781,-0.0469 0.16406,-0.0664 0.2539,-0.0664 0.0898,0 0.17578,0.0195 0.25391,0.0664 0.26562,0.15235 0.52734,0.3086 0.78125,0.47266 -0.54688,0.27734 -1.07031,0.57812 -1.57422,0.90234 -3.40234,2.19922 -5.85156,5.45313 -7.17969,9.83984 0,0.004 0,0.008 -0.004,0.0117 0,0.004 0,0.008 0,0.0117 -0.004,0.008 -0.008,0.0156 -0.008,0.0234 -0.0273,0.0898 -0.0547,0.17578 -0.0781,0.26562 -0.0117,0.0391 -0.0234,0.082 -0.0352,0.1211 -0.82422,2.91797 -1.17187,5.40625 -1.17187,7.60547 0,3.3789 0.80859,6.09765 2.00781,8.71875 0.50391,1.10156 1.08203,2.1914 1.69531,3.29297 0.84375,1.51171 1.75391,3.05859 2.64844,4.73437 1.42578,2.67969 2.26953,4.87891 2.66406,6.93359 0.14844,0.77735 0.23438,1.52735 0.26172,2.27735 0.004,0.0312 0.008,0.11328 0.008,0.25 0,0.38281 -0.0391,1.1875 -0.26953,2.39844 -0.35937,1.89062 -1.19531,4.78125 -3.09765,8.65625 -2.88672,5.87109 -5.22266,10.42578 -6.11719,12.15234 h 19.58984 c 0.008,0.0117 0.0117,0.0195 0.0195,0.0312 0.082,0.16016 0.125,0.24219 0.125,0.24609 0.0859,0.16016 0.0781,0.34766 -0.0156,0.50391 -0.0937,0.15625 -0.25781,0.25 -0.4375,0.25"
       fill-opacity="1"
       fill-rule="nonzero"
       id="path34"
       style="stroke-width:1.59975;stroke-dasharray:none" />
  </g>
  <g
     fill="#ededed"
     fill-opacity="1"
     id="g100"
     transform="translate(-116.43447,-111.81244)">
    <g
       transform="translate(273.60351,253.97768)"
       id="g99">
      <g
         id="g98" />
    </g>
  </g>
  <g
     fill="#ededed"
     fill-opacity="1"
     id="g133"
     transform="translate(-116.43447,-111.81244)">
    <g
       transform="translate(184.47286,269.8777)"
       id="g132">
      <g
         id="g131" />
    </g>
  </g>
  <g
     fill="#ededed"
     fill-opacity="1"
     id="g142"
     transform="translate(-116.43447,-111.81244)">
    <g
       transform="translate(216.30898,269.8777)"
       id="g141">
      <g
         id="g140" />
    </g>
  </g>
</svg>
